<svg id="kity_svg_6" xmlns="http://www.w3.org/2000/svg" xmlns:xlink="http://www.w3.org/1999/xlink" version="1.1" width="795" height="880" style="background: rgb(251, 251, 251); visibility: visible;" viewBox="0 0 795 880"><defs id="kity_defs_7"><linearGradient id="kity_linearGradient_17" x1="0" y1="0" x2="0" y2="1"><stop id="kity_stop_18" offset="0" stop-color="rgb(255, 255, 255)"></stop><stop id="kity_stop_19" offset="1" stop-color="rgb(204, 204, 204)"></stop></linearGradient><marker id="kity_marker_2" orient="auto" refX="6" refY="0" viewBox="-7 -7 14 14" markerWidth="7" markerHeight="7" markerUnits="userSpaceOnUse"><path id="kity_path_3" fill="rgb(115, 161, 191)" stroke="none" d="M6,0A6,6,0,1,1,-6,0A6,6,0,1,1,6,0"></path></marker></defs><g id="kity_g_8"><g id="minder1" text-rendering="optimize-speed"><g id="minder_connect_group1"><path id="kity_path_31" fill="none" stroke="rgb(115, 161, 191)" stroke-width="1" d="M64.5,433.5A60,391,0,0,1,124.5,42.5"></path><path id="kity_path_33" fill="none" stroke="rgb(115, 161, 191)" stroke-width="1" d="M194.5,42.5C202.5,42.5,202.5,42.5,210.5,42.5"></path><path id="kity_path_35" fill="none" stroke="rgb(115, 161, 191)" stroke-width="1" d="M474.5,42.5C482.5,42.5,482.5,29.5,490.5,29.5"></path><path id="kity_path_37" fill="none" stroke="rgb(115, 161, 191)" stroke-width="1" d="M474.5,42.5C482.5,42.5,482.5,55.5,490.5,55.5"></path><path id="kity_path_39" fill="none" stroke="rgb(115, 161, 191)" stroke-width="1" d="M64.5,433.5A60,110,0,0,1,124.5,323.5"></path><path id="kity_path_41" fill="none" stroke="rgb(115, 161, 191)" stroke-width="1" d="M196.5,323.5C204.5,323.5,204.5,102.5,212.5,102.5"></path><path id="kity_path_43" fill="none" stroke="rgb(115, 161, 191)" stroke-width="1" d="M290.5,102.5C298.5,102.5,298.5,89.5,306.5,89.5"></path><path id="kity_path_45" fill="none" stroke="rgb(115, 161, 191)" stroke-width="1" d="M290.5,102.5C298.5,102.5,298.5,115.5,306.5,115.5"></path><path id="kity_path_47" fill="none" stroke="rgb(115, 161, 191)" stroke-width="1" d="M196.5,323.5C204.5,323.5,204.5,209.5,212.5,209.5"></path><path id="kity_path_49" fill="none" stroke="rgb(115, 161, 191)" stroke-width="1" d="M322.5,209.5C330.5,209.5,330.5,141.5,338.5,141.5"></path><path id="kity_path_51" fill="none" stroke="rgb(115, 161, 191)" stroke-width="1" d="M322.5,209.5C330.5,209.5,330.5,167.5,338.5,167.5"></path><path id="kity_path_53" fill="none" stroke="rgb(115, 161, 191)" stroke-width="1" d="M322.5,209.5C330.5,209.5,330.5,193.5,338.5,193.5"></path><path id="kity_path_55" fill="none" stroke="rgb(115, 161, 191)" stroke-width="1" d="M398.5,193.5C406.5,193.5,406.5,193.5,414.5,193.5"></path><path id="kity_path_57" fill="none" stroke="rgb(115, 161, 191)" stroke-width="1" d="M322.5,209.5C330.5,209.5,330.5,277.5,338.5,277.5"></path><path id="kity_path_59" fill="none" stroke="rgb(115, 161, 191)" stroke-width="1" d="M373.5,277.5C381.5,277.5,381.5,232.5,389.5,232.5"></path><path id="kity_path_61" fill="none" stroke="rgb(115, 161, 191)" stroke-width="1" d="M425.5,232.5C433.5,232.5,433.5,219.5,441.5,219.5"></path><path id="kity_path_63" fill="none" stroke="rgb(115, 161, 191)" stroke-width="1" d="M425.5,232.5C433.5,232.5,433.5,245.5,441.5,245.5"></path><path id="kity_path_65" fill="none" stroke="rgb(115, 161, 191)" stroke-width="1" d="M373.5,277.5C381.5,277.5,381.5,271.5,389.5,271.5"></path><path id="kity_path_67" fill="none" stroke="rgb(115, 161, 191)" stroke-width="1" d="M461.5,271.5C469.5,271.5,469.5,271.5,477.5,271.5"></path><path id="kity_path_69" fill="none" stroke="rgb(115, 161, 191)" stroke-width="1" d="M373.5,277.5C381.5,277.5,381.5,297.5,389.5,297.5"></path><path id="kity_path_71" fill="none" stroke="rgb(115, 161, 191)" stroke-width="1" d="M448.5,297.5C456.5,297.5,456.5,297.5,464.5,297.5"></path><path id="kity_path_73" fill="none" stroke="rgb(115, 161, 191)" stroke-width="1" d="M373.5,277.5C381.5,277.5,381.5,323.5,389.5,323.5"></path><path id="kity_path_75" fill="none" stroke="rgb(115, 161, 191)" stroke-width="1" d="M426.5,323.5C434.5,323.5,434.5,323.5,442.5,323.5"></path><path id="kity_path_77" fill="none" stroke="rgb(115, 161, 191)" stroke-width="1" d="M501.5,323.5C509.5,323.5,509.5,323.5,517.5,323.5"></path><path id="kity_path_79" fill="none" stroke="rgb(115, 161, 191)" stroke-width="1" d="M196.5,323.5C204.5,323.5,204.5,544.5,212.5,544.5"></path><path id="kity_path_81" fill="none" stroke="rgb(115, 161, 191)" stroke-width="1" d="M266.5,544.5C274.5,544.5,274.5,362.5,282.5,362.5"></path><path id="kity_path_83" fill="none" stroke="rgb(115, 161, 191)" stroke-width="1" d="M546.5,362.5C554.5,362.5,554.5,349.5,562.5,349.5"></path><path id="kity_path_85" fill="none" stroke="rgb(115, 161, 191)" stroke-width="1" d="M546.5,362.5C554.5,362.5,554.5,375.5,562.5,375.5"></path><path id="kity_path_87" fill="none" stroke="rgb(115, 161, 191)" stroke-width="1" d="M266.5,544.5C274.5,544.5,274.5,479.5,282.5,479.5"></path><path id="kity_path_89" fill="none" stroke="rgb(115, 161, 191)" stroke-width="1" d="M318.5,479.5C326.5,479.5,326.5,440.5,334.5,440.5"></path><path id="kity_path_91" fill="none" stroke="rgb(115, 161, 191)" stroke-width="1" d="M370.5,440.5C378.5,440.5,378.5,414.5,386.5,414.5"></path><path id="kity_path_93" fill="none" stroke="rgb(115, 161, 191)" stroke-width="1" d="M509.5,414.5C517.5,414.5,517.5,401.5,525.5,401.5"></path><path id="kity_path_95" fill="none" stroke="rgb(115, 161, 191)" stroke-width="1" d="M509.5,414.5C517.5,414.5,517.5,427.5,525.5,427.5"></path><path id="kity_path_97" fill="none" stroke="rgb(115, 161, 191)" stroke-width="1" d="M370.5,440.5C378.5,440.5,378.5,466.5,386.5,466.5"></path><path id="kity_path_99" fill="none" stroke="rgb(115, 161, 191)" stroke-width="1" d="M421.5,466.5C429.5,466.5,429.5,453.5,437.5,453.5"></path><path id="kity_path_101" fill="none" stroke="rgb(115, 161, 191)" stroke-width="1" d="M421.5,466.5C429.5,466.5,429.5,479.5,437.5,479.5"></path><path id="kity_path_103" fill="none" stroke="rgb(115, 161, 191)" stroke-width="1" d="M318.5,479.5C326.5,479.5,326.5,518.5,334.5,518.5"></path><path id="kity_path_105" fill="none" stroke="rgb(115, 161, 191)" stroke-width="1" d="M382.5,518.5C390.5,518.5,390.5,505.5,398.5,505.5"></path><path id="kity_path_107" fill="none" stroke="rgb(115, 161, 191)" stroke-width="1" d="M382.5,518.5C390.5,518.5,390.5,531.5,398.5,531.5"></path><path id="kity_path_109" fill="none" stroke="rgb(115, 161, 191)" stroke-width="1" d="M266.5,544.5C274.5,544.5,274.5,596.5,282.5,596.5"></path><path id="kity_path_111" fill="none" stroke="rgb(115, 161, 191)" stroke-width="1" d="M341.5,596.5C349.5,596.5,349.5,557.5,357.5,557.5"></path><path id="kity_path_113" fill="none" stroke="rgb(115, 161, 191)" stroke-width="1" d="M341.5,596.5C349.5,596.5,349.5,583.5,357.5,583.5"></path><path id="kity_path_115" fill="none" stroke="rgb(115, 161, 191)" stroke-width="1" d="M341.5,596.5C349.5,596.5,349.5,609.5,357.5,609.5"></path><path id="kity_path_117" fill="none" stroke="rgb(115, 161, 191)" stroke-width="1" d="M341.5,596.5C349.5,596.5,349.5,635.5,357.5,635.5"></path><path id="kity_path_119" fill="none" stroke="rgb(115, 161, 191)" stroke-width="1" d="M266.5,544.5C274.5,544.5,274.5,726.5,282.5,726.5"></path><path id="kity_path_121" fill="none" stroke="rgb(115, 161, 191)" stroke-width="1" d="M312.5,726.5C320.5,726.5,320.5,687.5,328.5,687.5"></path><path id="kity_path_123" fill="none" stroke="rgb(115, 161, 191)" stroke-width="1" d="M412.5,687.5C420.5,687.5,420.5,661.5,428.5,661.5"></path><path id="kity_path_125" fill="none" stroke="rgb(115, 161, 191)" stroke-width="1" d="M412.5,687.5C420.5,687.5,420.5,687.5,428.5,687.5"></path><path id="kity_path_127" fill="none" stroke="rgb(115, 161, 191)" stroke-width="1" d="M412.5,687.5C420.5,687.5,420.5,713.5,428.5,713.5"></path><path id="kity_path_129" fill="none" stroke="rgb(115, 161, 191)" stroke-width="1" d="M312.5,726.5C320.5,726.5,320.5,739.5,328.5,739.5"></path><path id="kity_path_131" fill="none" stroke="rgb(115, 161, 191)" stroke-width="1" d="M364.5,739.5C372.5,739.5,372.5,739.5,380.5,739.5"></path><path id="kity_path_133" fill="none" stroke="rgb(115, 161, 191)" stroke-width="1" d="M428.5,739.5C436.5,739.5,436.5,739.5,444.5,739.5"></path><path id="kity_path_135" fill="none" stroke="rgb(115, 161, 191)" stroke-width="1" d="M312.5,726.5C320.5,726.5,320.5,765.5,328.5,765.5"></path><path id="kity_path_137" fill="none" stroke="rgb(115, 161, 191)" stroke-width="1" d="M400.5,765.5C408.5,765.5,408.5,765.5,416.5,765.5"></path><path id="kity_path_139" fill="none" stroke="rgb(115, 161, 191)" stroke-width="1" d="M64.5,433.5A60,392,0,0,0,124.5,825.5"></path><path id="kity_path_141" fill="none" stroke="rgb(115, 161, 191)" stroke-width="1" d="M223.5,825.5C231.5,825.5,231.5,799.5,239.5,799.5"></path><path id="kity_path_143" fill="none" stroke="rgb(115, 161, 191)" stroke-width="1" d="M223.5,825.5C231.5,825.5,231.5,825.5,239.5,825.5"></path><path id="kity_path_145" fill="none" stroke="rgb(115, 161, 191)" stroke-width="1" d="M311.5,825.5C319.5,825.5,319.5,825.5,327.5,825.5"></path><path id="kity_path_147" fill="none" stroke="rgb(115, 161, 191)" stroke-width="1" d="M223.5,825.5C231.5,825.5,231.5,851.5,239.5,851.5"></path><path id="kity_path_149" fill="none" stroke="rgb(115, 161, 191)" stroke-width="1" d="M322.5,851.5C330.5,851.5,330.5,851.5,338.5,851.5"></path></g><g id="minder_node1"><path id="node_outline1" fill="rgb(115, 161, 191)" stroke="rgb(57, 80, 96)" d="M25.5,419.5h78a5,5,0,0,1,5,5v18a5,5,0,0,1,-5,5h-78a5,5,0,0,1,-5,-5v-18a5,5,0,0,1,5,-5z" stroke-width="3"></path><g id="node_text1" fill="white"><text id="kity_text_22" text-rendering="inherit" font-size="16" dy=".8em" y="423.09999990463257" x="32.5">前端加密</text></g></g><g id="kity_g_12"><path id="kity_path_13" fill="none" stroke="none" d="M32.5,433.5h0v0h0z"></path></g><g id="kity_g_14"><path id="kity_path_15" fill="none" stroke="none" d="M32.5,433.5h0v0h0z"></path><path id="kity_path_16" fill="none" stroke="none"></path></g><g id="minder_node2"><g id="node_expander4" style="cursor: pointer;"><path id="kity_path_340" fill="white" stroke="gray" d="M125.5,42.5A6,6,0,1,1,113.5,42.5A6,6,0,1,1,125.5,42.5"></path><path id="kity_path_341" fill="none" stroke="gray" d="M115,42.5L124,42.5"></path></g><path id="node_outline5" fill="rgb(238, 243, 246)" stroke="rgb(115, 161, 191)" d="M129.5,29.5h62a3,3,0,0,1,3,3v20a3,3,0,0,1,-3,3h-62a3,3,0,0,1,-3,-3v-20a3,3,0,0,1,3,-3z" stroke-width="1"></path><g id="node_text5" fill="black"><text id="kity_text_157" text-rendering="inherit" font-size="14" dy=".8em" y="33.40000009536743" x="146.5">目的</text></g></g><g id="minder_node3"><g id="node_expander3" style="cursor: pointer;"><path id="kity_path_337" fill="white" stroke="gray" d="M210.5,42.5A6,6,0,1,1,198.5,42.5A6,6,0,1,1,210.5,42.5"></path><path id="kity_path_338" fill="none" stroke="gray" d="M200,42.5L209,42.5"></path></g><path id="node_outline4" fill="none" stroke="none" d="M215.5,33.5h254a5,5,0,0,1,5,5v8a5,5,0,0,1,-5,5h-254a5,5,0,0,1,-5,-5v-8a5,5,0,0,1,5,-5z"></path><g id="node_text4" fill="black"><text id="kity_text_155" text-rendering="inherit" font-size="12" dy=".8em" y="34.700000047683716" x="215.5">将明文转换为密文、甚至转换为其他的信息形式</text></g></g><g id="minder_node4"><g id="node_expander1" display="none" style="cursor: pointer;"><path id="kity_path_331" fill="white" stroke="gray" d="M490.5,29.5A6,6,0,1,1,478.5,29.5A6,6,0,1,1,490.5,29.5"></path><path id="kity_path_332" fill="none" stroke="gray"></path></g><path id="node_outline2" fill="none" stroke="none" d="M495.5,20.5h193a5,5,0,0,1,5,5v8a5,5,0,0,1,-5,5h-193a5,5,0,0,1,-5,-5v-8a5,5,0,0,1,5,-5z"></path><g id="node_text2" fill="black"><text id="kity_text_151" text-rendering="inherit" font-size="12" dy=".8em" y="21.700000047683716" x="495.5">防止其他人直接获取到敏感明文信息</text></g></g><g id="minder_node5"><g id="node_expander2" display="none" style="cursor: pointer;"><path id="kity_path_334" fill="white" stroke="gray" d="M490.5,55.5A6,6,0,1,1,478.5,55.5A6,6,0,1,1,490.5,55.5"></path><path id="kity_path_335" fill="none" stroke="gray"></path></g><path id="node_outline3" fill="none" stroke="none" d="M495.5,46.5h182a5,5,0,0,1,5,5v8a5,5,0,0,1,-5,5h-182a5,5,0,0,1,-5,-5v-8a5,5,0,0,1,5,-5z"></path><g id="node_text3" fill="black"><text id="kity_text_153" text-rendering="inherit" font-size="12" dy=".8em" y="47.700000047683716" x="495.5">提高其他人获取到明文信息的难度</text></g></g><g id="minder_node6"><g id="node_expander54" style="cursor: pointer;"><path id="kity_path_490" fill="white" stroke="gray" d="M125.5,323.5A6,6,0,1,1,113.5,323.5A6,6,0,1,1,125.5,323.5"></path><path id="kity_path_491" fill="none" stroke="gray" d="M115,323.5L124,323.5"></path></g><path id="node_outline55" fill="rgb(238, 243, 246)" stroke="rgb(115, 161, 191)" d="M129.5,310.5h64a3,3,0,0,1,3,3v20a3,3,0,0,1,-3,3h-64a3,3,0,0,1,-3,-3v-20a3,3,0,0,1,3,-3z" stroke-width="1"></path><g id="node_text55" fill="black"><text id="kity_text_257" text-rendering="inherit" font-size="14" dy=".8em" y="314.40000009536743" x="146.5">方式</text></g></g><g id="minder_node7"><g id="node_expander7" style="cursor: pointer;"><path id="kity_path_349" fill="white" stroke="gray" d="M212.5,102.5A6,6,0,1,1,200.5,102.5A6,6,0,1,1,212.5,102.5"></path><path id="kity_path_350" fill="none" stroke="gray" d="M202,102.5L211,102.5"></path></g><path id="node_outline8" fill="none" stroke="none" d="M217.5,93.5h68a5,5,0,0,1,5,5v8a5,5,0,0,1,-5,5h-68a5,5,0,0,1,-5,-5v-8a5,5,0,0,1,5,-5z"></path><g id="node_text8" fill="black"><text id="kity_text_163" text-rendering="inherit" font-size="12" dy=".8em" y="94.70000004768372" x="217.5">Base64 编码</text></g></g><g id="minder_node8"><g id="node_expander5" display="none" style="cursor: pointer;"><path id="kity_path_343" fill="white" stroke="gray" d="M306.5,89.5A6,6,0,1,1,294.5,89.5A6,6,0,1,1,306.5,89.5"></path><path id="kity_path_344" fill="none" stroke="gray"></path></g><path id="node_outline6" fill="none" stroke="none" d="M311.5,80.5h86a5,5,0,0,1,5,5v8a5,5,0,0,1,-5,5h-86a5,5,0,0,1,-5,-5v-8a5,5,0,0,1,5,-5z"></path><g id="node_text6" fill="black"><text id="kity_text_159" text-rendering="inherit" font-size="12" dy=".8em" y="81.70000004768372" x="311.5">查表的编码方法</text></g></g><g id="minder_node9"><g id="node_expander6" display="none" style="cursor: pointer;"><path id="kity_path_346" fill="white" stroke="gray" d="M306.5,115.5A6,6,0,1,1,294.5,115.5A6,6,0,1,1,306.5,115.5"></path><path id="kity_path_347" fill="none" stroke="gray"></path></g><path id="node_outline7" fill="none" stroke="none" d="M311.5,106.5h282a5,5,0,0,1,5,5v8a5,5,0,0,1,-5,5h-282a5,5,0,0,1,-5,-5v-8a5,5,0,0,1,5,-5z"></path><g id="node_text7" fill="black"><text id="kity_text_161" text-rendering="inherit" font-size="12" dy=".8em" y="107.70000004768372" x="311.5">小段内容的编码，比如数字证书签名、Cookie的内容</text></g></g><g id="minder_node10"><g id="node_expander23" style="cursor: pointer;"><path id="kity_path_397" fill="white" stroke="gray" d="M212.5,209.5A6,6,0,1,1,200.5,209.5A6,6,0,1,1,212.5,209.5"></path><path id="kity_path_398" fill="none" stroke="gray" d="M202,209.5L211,209.5"></path></g><path id="node_outline24" fill="none" stroke="none" d="M217.5,200.5h100a5,5,0,0,1,5,5v8a5,5,0,0,1,-5,5h-100a5,5,0,0,1,-5,-5v-8a5,5,0,0,1,5,-5z"></path><g id="node_text24" fill="black"><text id="kity_text_195" text-rendering="inherit" font-size="12" dy=".8em" y="201.70000004768372" x="217.5"> hash(MD5/SHA1)</text></g></g><g id="minder_node11"><g id="node_expander8" display="none" style="cursor: pointer;"><path id="kity_path_352" fill="white" stroke="gray" d="M338.5,141.5A6,6,0,1,1,326.5,141.5A6,6,0,1,1,338.5,141.5"></path><path id="kity_path_353" fill="none" stroke="gray"></path></g><path id="node_outline9" fill="none" stroke="none" d="M343.5,132.5h217a5,5,0,0,1,5,5v8a5,5,0,0,1,-5,5h-217a5,5,0,0,1,-5,-5v-8a5,5,0,0,1,5,-5z"></path><g id="node_text9" fill="black"><text id="kity_text_165" text-rendering="inherit" font-size="12" dy=".8em" y="133.70000004768372" x="343.5">将目标文本转换成具有固定长度的字符串</text></g></g><g id="minder_node12"><g id="node_expander9" display="none" style="cursor: pointer;"><path id="kity_path_355" fill="white" stroke="gray" d="M338.5,167.5A6,6,0,1,1,326.5,167.5A6,6,0,1,1,338.5,167.5"></path><path id="kity_path_356" fill="none" stroke="gray"></path></g><path id="node_outline10" fill="none" stroke="none" d="M343.5,158.5h302a5,5,0,0,1,5,5v8a5,5,0,0,1,-5,5h-302a5,5,0,0,1,-5,-5v-8a5,5,0,0,1,5,-5z"></path><g id="node_text10" fill="black"><text id="kity_text_167" text-rendering="inherit" font-size="12" dy=".8em" y="159.70000004768372" x="343.5">被保护数据仅仅用作比较验证且不需要还原成明文的形式</text></g></g><g id="minder_node13"><g id="node_expander11" style="cursor: pointer;"><path id="kity_path_361" fill="white" stroke="gray" d="M338.5,193.5A6,6,0,1,1,326.5,193.5A6,6,0,1,1,338.5,193.5"></path><path id="kity_path_362" fill="none" stroke="gray" d="M328,193.5L337,193.5"></path></g><path id="node_outline12" fill="none" stroke="none" d="M343.5,184.5h50a5,5,0,0,1,5,5v8a5,5,0,0,1,-5,5h-50a5,5,0,0,1,-5,-5v-8a5,5,0,0,1,5,-5z"></path><g id="node_text12" fill="black"><text id="kity_text_171" text-rendering="inherit" font-size="12" dy=".8em" y="185.70000004768372" x="343.5">攻击方法</text></g></g><g id="minder_node14"><g id="node_expander10" display="none" style="cursor: pointer;"><path id="kity_path_358" fill="white" stroke="gray" d="M414.5,193.5A6,6,0,1,1,402.5,193.5A6,6,0,1,1,414.5,193.5"></path><path id="kity_path_359" fill="none" stroke="gray"></path></g><path id="node_outline11" fill="none" stroke="none" d="M419.5,184.5h86a5,5,0,0,1,5,5v8a5,5,0,0,1,-5,5h-86a5,5,0,0,1,-5,-5v-8a5,5,0,0,1,5,-5z"></path><g id="node_text11" fill="black"><text id="kity_text_169" text-rendering="inherit" font-size="12" dy=".8em" y="185.70000004768372" x="419.5">碰撞法和穷举法</text></g></g><g id="minder_node15"><g id="node_expander22" style="cursor: pointer;"><path id="kity_path_394" fill="white" stroke="gray" d="M338.5,277.5A6,6,0,1,1,326.5,277.5A6,6,0,1,1,338.5,277.5"></path><path id="kity_path_395" fill="none" stroke="gray" d="M328,277.5L337,277.5"></path></g><path id="node_outline23" fill="none" stroke="none" d="M343.5,268.5h25a5,5,0,0,1,5,5v8a5,5,0,0,1,-5,5h-25a5,5,0,0,1,-5,-5v-8a5,5,0,0,1,5,-5z"></path><g id="node_text23" fill="black"><text id="kity_text_193" text-rendering="inherit" font-size="12" dy=".8em" y="269.7000000476837" x="343.5">改进</text></g></g><g id="minder_node16"><g id="node_expander14" style="cursor: pointer;"><path id="kity_path_370" fill="white" stroke="gray" d="M389.5,232.5A6,6,0,1,1,377.5,232.5A6,6,0,1,1,389.5,232.5"></path><path id="kity_path_371" fill="none" stroke="gray" d="M379,232.5L388,232.5"></path></g><path id="node_outline15" fill="none" stroke="none" d="M394.5,223.5h26a5,5,0,0,1,5,5v8a5,5,0,0,1,-5,5h-26a5,5,0,0,1,-5,-5v-8a5,5,0,0,1,5,-5z"></path><g id="node_text15" fill="black"><text id="kity_text_177" text-rendering="inherit" font-size="12" dy=".8em" y="224.70000004768372" x="394.5">加盐</text></g></g><g id="minder_node17"><g id="node_expander12" display="none" style="cursor: pointer;"><path id="kity_path_364" fill="white" stroke="gray" d="M441.5,219.5A6,6,0,1,1,429.5,219.5A6,6,0,1,1,441.5,219.5"></path><path id="kity_path_365" fill="none" stroke="gray"></path></g><path id="node_outline13" fill="none" stroke="none" d="M446.5,210.5h324a5,5,0,0,1,5,5v8a5,5,0,0,1,-5,5h-324a5,5,0,0,1,-5,-5v-8a5,5,0,0,1,5,-5z"></path><g id="node_text13" fill="black"><text id="kity_text_173" text-rendering="inherit" font-size="12" dy=".8em" y="211.70000004768372" x="446.5">将每一个口令同一个叫做“盐”（salt）的 n 位随机数相关联</text></g></g><g id="minder_node18"><g id="node_expander13" display="none" style="cursor: pointer;"><path id="kity_path_367" fill="white" stroke="gray" d="M441.5,245.5A6,6,0,1,1,429.5,245.5A6,6,0,1,1,441.5,245.5"></path><path id="kity_path_368" fill="none" stroke="gray"></path></g><path id="node_outline14" fill="none" stroke="none" d="M446.5,236.5h218a5,5,0,0,1,5,5v8a5,5,0,0,1,-5,5h-218a5,5,0,0,1,-5,-5v-8a5,5,0,0,1,5,-5z"></path><g id="node_text14" fill="black"><text id="kity_text_175" text-rendering="inherit" font-size="12" dy=".8em" y="237.70000004768372" x="446.5">盐值应该使用加密的安全伪随机数生成器</text></g></g><g id="minder_node19"><g id="node_expander16" style="cursor: pointer;"><path id="kity_path_376" fill="white" stroke="gray" d="M389.5,271.5A6,6,0,1,1,377.5,271.5A6,6,0,1,1,389.5,271.5"></path><path id="kity_path_377" fill="none" stroke="gray" d="M379,271.5L388,271.5"></path></g><path id="node_outline17" fill="none" stroke="none" d="M394.5,262.5h62a5,5,0,0,1,5,5v8a5,5,0,0,1,-5,5h-62a5,5,0,0,1,-5,-5v-8a5,5,0,0,1,5,-5z"></path><g id="node_text17" fill="black"><text id="kity_text_181" text-rendering="inherit" font-size="12" dy=".8em" y="263.7000000476837" x="394.5">慢哈希函数</text></g></g><g id="minder_node20"><g id="node_expander15" display="none" style="cursor: pointer;"><path id="kity_path_373" fill="white" stroke="gray" d="M477.5,271.5A6,6,0,1,1,465.5,271.5A6,6,0,1,1,477.5,271.5"></path><path id="kity_path_374" fill="none" stroke="gray"></path></g><path id="node_outline16" fill="none" stroke="none" d="M482.5,262.5h122a5,5,0,0,1,5,5v8a5,5,0,0,1,-5,5h-122a5,5,0,0,1,-5,-5v-8a5,5,0,0,1,5,-5z"></path><g id="node_text16" fill="black"><text id="kity_text_179" text-rendering="inherit" font-size="12" dy=".8em" y="263.7000000476837" x="482.5">将哈希函数变得非常慢</text></g></g><g id="minder_node21"><g id="node_expander18" style="cursor: pointer;"><path id="kity_path_382" fill="white" stroke="gray" d="M389.5,297.5A6,6,0,1,1,377.5,297.5A6,6,0,1,1,389.5,297.5"></path><path id="kity_path_383" fill="none" stroke="gray" d="M379,297.5L388,297.5"></path></g><path id="node_outline19" fill="none" stroke="none" d="M394.5,288.5h49a5,5,0,0,1,5,5v8a5,5,0,0,1,-5,5h-49a5,5,0,0,1,-5,-5v-8a5,5,0,0,1,5,-5z"></path><g id="node_text19" fill="black"><text id="kity_text_185" text-rendering="inherit" font-size="12" dy=".8em" y="289.7000000476837" x="394.5">密钥哈希</text></g></g><g id="minder_node22"><g id="node_expander17" display="none" style="cursor: pointer;"><path id="kity_path_379" fill="white" stroke="gray" d="M464.5,297.5A6,6,0,1,1,452.5,297.5A6,6,0,1,1,464.5,297.5"></path><path id="kity_path_380" fill="none" stroke="gray"></path></g><path id="node_outline18" fill="none" stroke="none" d="M469.5,288.5h182a5,5,0,0,1,5,5v8a5,5,0,0,1,-5,5h-182a5,5,0,0,1,-5,-5v-8a5,5,0,0,1,5,-5z"></path><g id="node_text18" fill="black"><text id="kity_text_183" text-rendering="inherit" font-size="12" dy=".8em" y="289.7000000476837" x="469.5">密钥哈希是将密钥添加到哈希加密</text></g></g><g id="minder_node23"><g id="node_expander21" style="cursor: pointer;"><path id="kity_path_391" fill="white" stroke="gray" d="M389.5,323.5A6,6,0,1,1,377.5,323.5A6,6,0,1,1,389.5,323.5"></path><path id="kity_path_392" fill="none" stroke="gray" d="M379,323.5L388,323.5"></path></g><path id="node_outline22" fill="none" stroke="none" d="M394.5,314.5h27a5,5,0,0,1,5,5v8a5,5,0,0,1,-5,5h-27a5,5,0,0,1,-5,-5v-8a5,5,0,0,1,5,-5z"></path><g id="node_text22" fill="black"><text id="kity_text_191" text-rendering="inherit" font-size="12" dy=".8em" y="315.7000000476837" x="394.5">XOR</text></g></g><g id="minder_node24"><g id="node_expander20" style="cursor: pointer;"><path id="kity_path_388" fill="white" stroke="gray" d="M442.5,323.5A6,6,0,1,1,430.5,323.5A6,6,0,1,1,442.5,323.5"></path><path id="kity_path_389" fill="none" stroke="gray" d="M432,323.5L441,323.5"></path></g><path id="node_outline21" fill="none" stroke="none" d="M447.5,314.5h49a5,5,0,0,1,5,5v8a5,5,0,0,1,-5,5h-49a5,5,0,0,1,-5,-5v-8a5,5,0,0,1,5,-5z"></path><g id="node_text21" fill="black"><text id="kity_text_189" text-rendering="inherit" font-size="12" dy=".8em" y="315.7000000476837" x="447.5">异或运算</text></g></g><g id="minder_node25"><g id="node_expander19" display="none" style="cursor: pointer;"><path id="kity_path_385" fill="white" stroke="gray" d="M517.5,323.5A6,6,0,1,1,505.5,323.5A6,6,0,1,1,517.5,323.5"></path><path id="kity_path_386" fill="none" stroke="gray"></path></g><path id="node_outline20" fill="none" stroke="none" d="M522.5,314.5h23a5,5,0,0,1,5,5v8a5,5,0,0,1,-5,5h-23a5,5,0,0,1,-5,-5v-8a5,5,0,0,1,5,-5z"></path><g id="node_text20" fill="black"><text id="kity_text_187" text-rendering="inherit" font-size="12" dy=".8em" y="315.7000000476837" x="522.5">js:^</text></g></g><g id="minder_node26"><g id="node_expander53" style="cursor: pointer;"><path id="kity_path_487" fill="white" stroke="gray" d="M212.5,544.5A6,6,0,1,1,200.5,544.5A6,6,0,1,1,212.5,544.5"></path><path id="kity_path_488" fill="none" stroke="gray" d="M202,544.5L211,544.5"></path></g><path id="node_outline54" fill="none" stroke="none" d="M217.5,535.5h44a5,5,0,0,1,5,5v8a5,5,0,0,1,-5,5h-44a5,5,0,0,1,-5,-5v-8a5,5,0,0,1,5,-5z"></path><g id="node_text54" fill="black"><text id="kity_text_255" text-rendering="inherit" font-size="12" dy=".8em" y="536.7000000476837" x="217.5">Encrypt</text></g></g><g id="minder_node27"><g id="node_expander26" style="cursor: pointer;"><path id="kity_path_406" fill="white" stroke="gray" d="M282.5,362.5A6,6,0,1,1,270.5,362.5A6,6,0,1,1,282.5,362.5"></path><path id="kity_path_407" fill="none" stroke="gray" d="M272,362.5L281,362.5"></path></g><path id="node_outline27" fill="none" stroke="none" d="M287.5,353.5h254a5,5,0,0,1,5,5v8a5,5,0,0,1,-5,5h-254a5,5,0,0,1,-5,-5v-8a5,5,0,0,1,5,-5z"></path><g id="node_text27" fill="black"><text id="kity_text_201" text-rendering="inherit" font-size="12" dy=".8em" y="354.7000000476837" x="287.5">将目标文本转换成具有不同长度的、可逆的密文</text></g></g><g id="minder_node28"><g id="node_expander24" display="none" style="cursor: pointer;"><path id="kity_path_400" fill="white" stroke="gray" d="M562.5,349.5A6,6,0,1,1,550.5,349.5A6,6,0,1,1,562.5,349.5"></path><path id="kity_path_401" fill="none" stroke="gray"></path></g><path id="node_outline25" fill="none" stroke="none" d="M567.5,340.5h49a5,5,0,0,1,5,5v8a5,5,0,0,1,-5,5h-49a5,5,0,0,1,-5,-5v-8a5,5,0,0,1,5,-5z"></path><g id="node_text25" fill="black"><text id="kity_text_197" text-rendering="inherit" font-size="12" dy=".8em" y="341.7000000476837" x="567.5">加密密钥</text></g></g><g id="minder_node29"><g id="node_expander25" display="none" style="cursor: pointer;"><path id="kity_path_403" fill="white" stroke="gray" d="M562.5,375.5A6,6,0,1,1,550.5,375.5A6,6,0,1,1,562.5,375.5"></path><path id="kity_path_404" fill="none" stroke="gray"></path></g><path id="node_outline26" fill="none" stroke="none" d="M567.5,366.5h49a5,5,0,0,1,5,5v8a5,5,0,0,1,-5,5h-49a5,5,0,0,1,-5,-5v-8a5,5,0,0,1,5,-5z"></path><g id="node_text26" fill="black"><text id="kity_text_199" text-rendering="inherit" font-size="12" dy=".8em" y="367.7000000476837" x="567.5">解密密钥</text></g></g><g id="minder_node30"><g id="node_expander37" style="cursor: pointer;"><path id="kity_path_439" fill="white" stroke="gray" d="M282.5,479.5A6,6,0,1,1,270.5,479.5A6,6,0,1,1,282.5,479.5"></path><path id="kity_path_440" fill="none" stroke="gray" d="M272,479.5L281,479.5"></path></g><path id="node_outline38" fill="none" stroke="none" d="M287.5,470.5h26a5,5,0,0,1,5,5v8a5,5,0,0,1,-5,5h-26a5,5,0,0,1,-5,-5v-8a5,5,0,0,1,5,-5z"></path><g id="node_text38" fill="black"><text id="kity_text_223" text-rendering="inherit" font-size="12" dy=".8em" y="471.7000000476837" x="287.5">加密</text></g></g><g id="minder_node31"><g id="node_expander33" style="cursor: pointer;"><path id="kity_path_427" fill="white" stroke="gray" d="M334.5,440.5A6,6,0,1,1,322.5,440.5A6,6,0,1,1,334.5,440.5"></path><path id="kity_path_428" fill="none" stroke="gray" d="M324,440.5L333,440.5"></path></g><path id="node_outline34" fill="none" stroke="none" d="M339.5,431.5h26a5,5,0,0,1,5,5v8a5,5,0,0,1,-5,5h-26a5,5,0,0,1,-5,-5v-8a5,5,0,0,1,5,-5z"></path><g id="node_text34" fill="black"><text id="kity_text_215" text-rendering="inherit" font-size="12" dy=".8em" y="432.7000000476837" x="339.5">对称</text></g></g><g id="minder_node32"><g id="node_expander29" style="cursor: pointer;"><path id="kity_path_415" fill="white" stroke="gray" d="M386.5,414.5A6,6,0,1,1,374.5,414.5A6,6,0,1,1,386.5,414.5"></path><path id="kity_path_416" fill="none" stroke="gray" d="M376,414.5L385,414.5"></path></g><path id="node_outline30" fill="none" stroke="none" d="M391.5,405.5h113a5,5,0,0,1,5,5v8a5,5,0,0,1,-5,5h-113a5,5,0,0,1,-5,-5v-8a5,5,0,0,1,5,-5z"></path><g id="node_text30" fill="black"><text id="kity_text_207" text-rendering="inherit" font-size="12" dy=".8em" y="406.7000000476837" x="391.5">加密key等于解密key</text></g></g><g id="minder_node33"><g id="node_expander27" display="none" style="cursor: pointer;"><path id="kity_path_409" fill="white" stroke="gray" d="M525.5,401.5A6,6,0,1,1,513.5,401.5A6,6,0,1,1,525.5,401.5"></path><path id="kity_path_410" fill="none" stroke="gray"></path></g><path id="node_outline28" fill="none" stroke="none" d="M530.5,392.5h24a5,5,0,0,1,5,5v8a5,5,0,0,1,-5,5h-24a5,5,0,0,1,-5,-5v-8a5,5,0,0,1,5,-5z"></path><g id="node_text28" fill="black"><text id="kity_text_203" text-rendering="inherit" font-size="12" dy=".8em" y="393.7000000476837" x="530.5">RSA</text></g></g><g id="minder_node34"><g id="node_expander28" display="none" style="cursor: pointer;"><path id="kity_path_412" fill="white" stroke="gray" d="M525.5,427.5A6,6,0,1,1,513.5,427.5A6,6,0,1,1,525.5,427.5"></path><path id="kity_path_413" fill="none" stroke="gray"></path></g><path id="node_outline29" fill="none" stroke="none" d="M530.5,418.5h25a5,5,0,0,1,5,5v8a5,5,0,0,1,-5,5h-25a5,5,0,0,1,-5,-5v-8a5,5,0,0,1,5,-5z"></path><g id="node_text29" fill="black"><text id="kity_text_205" text-rendering="inherit" font-size="12" dy=".8em" y="419.7000000476837" x="530.5">DSA</text></g></g><g id="minder_node35"><g id="node_expander32" style="cursor: pointer;"><path id="kity_path_424" fill="white" stroke="gray" d="M386.5,466.5A6,6,0,1,1,374.5,466.5A6,6,0,1,1,386.5,466.5"></path><path id="kity_path_425" fill="none" stroke="gray" d="M376,466.5L385,466.5"></path></g><path id="node_outline33" fill="none" stroke="none" d="M391.5,457.5h25a5,5,0,0,1,5,5v8a5,5,0,0,1,-5,5h-25a5,5,0,0,1,-5,-5v-8a5,5,0,0,1,5,-5z"></path><g id="node_text33" fill="black"><text id="kity_text_213" text-rendering="inherit" font-size="12" dy=".8em" y="458.7000000476837" x="391.5">特点</text></g></g><g id="minder_node36"><g id="node_expander30" display="none" style="cursor: pointer;"><path id="kity_path_418" fill="white" stroke="gray" d="M437.5,453.5A6,6,0,1,1,425.5,453.5A6,6,0,1,1,437.5,453.5"></path><path id="kity_path_419" fill="none" stroke="gray"></path></g><path id="node_outline31" fill="none" stroke="none" d="M442.5,444.5h146a5,5,0,0,1,5,5v8a5,5,0,0,1,-5,5h-146a5,5,0,0,1,-5,-5v-8a5,5,0,0,1,5,-5z"></path><g id="node_text31" fill="black"><text id="kity_text_209" text-rendering="inherit" font-size="12" dy=".8em" y="445.7000000476837" x="442.5">对称加密适用于加密长文本</text></g></g><g id="minder_node37"><g id="node_expander31" display="none" style="cursor: pointer;"><path id="kity_path_421" fill="white" stroke="gray" d="M437.5,479.5A6,6,0,1,1,425.5,479.5A6,6,0,1,1,437.5,479.5"></path><path id="kity_path_422" fill="none" stroke="gray"></path></g><path id="node_outline32" fill="none" stroke="none" d="M442.5,470.5h109a5,5,0,0,1,5,5v8a5,5,0,0,1,-5,5h-109a5,5,0,0,1,-5,-5v-8a5,5,0,0,1,5,-5z"></path><g id="node_text32" fill="black"><text id="kity_text_211" text-rendering="inherit" font-size="12" dy=".8em" y="471.7000000476837" x="442.5">对称加密的速度更快</text></g></g><g id="minder_node38"><g id="node_expander36" style="cursor: pointer;"><path id="kity_path_436" fill="white" stroke="gray" d="M334.5,518.5A6,6,0,1,1,322.5,518.5A6,6,0,1,1,334.5,518.5"></path><path id="kity_path_437" fill="none" stroke="gray" d="M324,518.5L333,518.5"></path></g><path id="node_outline37" fill="none" stroke="none" d="M339.5,509.5h38a5,5,0,0,1,5,5v8a5,5,0,0,1,-5,5h-38a5,5,0,0,1,-5,-5v-8a5,5,0,0,1,5,-5z"></path><g id="node_text37" fill="black"><text id="kity_text_221" text-rendering="inherit" font-size="12" dy=".8em" y="510.7000000476837" x="339.5">非对称</text></g></g><g id="minder_node39"><g id="node_expander34" display="none" style="cursor: pointer;"><path id="kity_path_430" fill="white" stroke="gray" d="M398.5,505.5A6,6,0,1,1,386.5,505.5A6,6,0,1,1,398.5,505.5"></path><path id="kity_path_431" fill="none" stroke="gray"></path></g><path id="node_outline35" fill="none" stroke="none" d="M403.5,496.5h158a5,5,0,0,1,5,5v8a5,5,0,0,1,-5,5h-158a5,5,0,0,1,-5,-5v-8a5,5,0,0,1,5,-5z"></path><g id="node_text35" fill="black"><text id="kity_text_217" text-rendering="inherit" font-size="12" dy=".8em" y="497.7000000476837" x="403.5">对称加密通常用于加密短文本</text></g></g><g id="minder_node40"><g id="node_expander35" display="none" style="cursor: pointer;"><path id="kity_path_433" fill="white" stroke="gray" d="M398.5,531.5A6,6,0,1,1,386.5,531.5A6,6,0,1,1,398.5,531.5"></path><path id="kity_path_434" fill="none" stroke="gray"></path></g><path id="node_outline36" fill="none" stroke="none" d="M403.5,522.5h110a5,5,0,0,1,5,5v8a5,5,0,0,1,-5,5h-110a5,5,0,0,1,-5,-5v-8a5,5,0,0,1,5,-5z"></path><g id="node_text36" fill="black"><text id="kity_text_219" text-rendering="inherit" font-size="12" dy=".8em" y="523.7000000476837" x="403.5">公钥加密，私钥解密</text></g></g><g id="minder_node41"><g id="node_expander42" style="cursor: pointer;"><path id="kity_path_454" fill="white" stroke="gray" d="M282.5,596.5A6,6,0,1,1,270.5,596.5A6,6,0,1,1,282.5,596.5"></path><path id="kity_path_455" fill="none" stroke="gray" d="M272,596.5L281,596.5"></path></g><path id="node_outline43" fill="none" stroke="none" d="M287.5,587.5h49a5,5,0,0,1,5,5v8a5,5,0,0,1,-5,5h-49a5,5,0,0,1,-5,-5v-8a5,5,0,0,1,5,-5z"></path><g id="node_text43" fill="black"><text id="kity_text_233" text-rendering="inherit" font-size="12" dy=".8em" y="588.7000000476837" x="287.5">数字签名</text></g></g><g id="minder_node42"><g id="node_expander38" display="none" style="cursor: pointer;"><path id="kity_path_442" fill="white" stroke="gray" d="M357.5,557.5A6,6,0,1,1,345.5,557.5A6,6,0,1,1,357.5,557.5"></path><path id="kity_path_443" fill="none" stroke="gray"></path></g><path id="node_outline39" fill="none" stroke="none" d="M362.5,548.5h110a5,5,0,0,1,5,5v8a5,5,0,0,1,-5,5h-110a5,5,0,0,1,-5,-5v-8a5,5,0,0,1,5,-5z"></path><g id="node_text39" fill="black"><text id="kity_text_225" text-rendering="inherit" font-size="12" dy=".8em" y="549.7000000476837" x="362.5">私钥签名，公钥验证</text></g></g><g id="minder_node43"><g id="node_expander39" display="none" style="cursor: pointer;"><path id="kity_path_445" fill="white" stroke="gray" d="M357.5,583.5A6,6,0,1,1,345.5,583.5A6,6,0,1,1,357.5,583.5"></path><path id="kity_path_446" fill="none" stroke="gray"></path></g><path id="node_outline40" fill="none" stroke="none" d="M362.5,574.5h177a5,5,0,0,1,5,5v8a5,5,0,0,1,-5,5h-177a5,5,0,0,1,-5,-5v-8a5,5,0,0,1,5,-5z"></path><g id="node_text40" fill="black"><text id="kity_text_227" text-rendering="inherit" font-size="12" dy=".8em" y="575.7000000476837" x="362.5">公钥破解电子签名，得到摘要 D1</text></g></g><g id="minder_node44"><g id="node_expander40" display="none" style="cursor: pointer;"><path id="kity_path_448" fill="white" stroke="gray" d="M357.5,609.5A6,6,0,1,1,345.5,609.5A6,6,0,1,1,357.5,609.5"></path><path id="kity_path_449" fill="none" stroke="gray"></path></g><path id="node_outline41" fill="none" stroke="none" d="M362.5,600.5h117a5,5,0,0,1,5,5v8a5,5,0,0,1,-5,5h-117a5,5,0,0,1,-5,-5v-8a5,5,0,0,1,5,-5z"></path><g id="node_text41" fill="black"><text id="kity_text_229" text-rendering="inherit" font-size="12" dy=".8em" y="601.7000000476837" x="362.5">计算目标文本摘要 D2</text></g></g><g id="minder_node45"><g id="node_expander41" display="none" style="cursor: pointer;"><path id="kity_path_451" fill="white" stroke="gray" d="M357.5,635.5A6,6,0,1,1,345.5,635.5A6,6,0,1,1,357.5,635.5"></path><path id="kity_path_452" fill="none" stroke="gray"></path></g><path id="node_outline42" fill="none" stroke="none" d="M362.5,626.5h247a5,5,0,0,1,5,5v8a5,5,0,0,1,-5,5h-247a5,5,0,0,1,-5,-5v-8a5,5,0,0,1,5,-5z"></path><g id="node_text42" fill="black"><text id="kity_text_231" text-rendering="inherit" font-size="12" dy=".8em" y="627.7000000476837" x="362.5">D1 === D2，则说明目标文本完整、未被篡改</text></g></g><g id="minder_node46"><g id="node_expander52" style="cursor: pointer;"><path id="kity_path_484" fill="white" stroke="gray" d="M282.5,726.5A6,6,0,1,1,270.5,726.5A6,6,0,1,1,282.5,726.5"></path><path id="kity_path_485" fill="none" stroke="gray" d="M272,726.5L281,726.5"></path></g><path id="node_outline53" fill="none" stroke="none" d="M287.5,717.5h20a5,5,0,0,1,5,5v8a5,5,0,0,1,-5,5h-20a5,5,0,0,1,-5,-5v-8a5,5,0,0,1,5,-5z"></path><g id="node_text53" fill="black"><text id="kity_text_253" text-rendering="inherit" font-size="12" dy=".8em" y="718.7000000476837" x="287.5">API</text></g></g><g id="minder_node47"><g id="node_expander46" style="cursor: pointer;"><path id="kity_path_466" fill="white" stroke="gray" d="M328.5,687.5A6,6,0,1,1,316.5,687.5A6,6,0,1,1,328.5,687.5"></path><path id="kity_path_467" fill="none" stroke="gray" d="M318,687.5L327,687.5"></path></g><path id="node_outline47" fill="none" stroke="none" d="M333.5,678.5h74a5,5,0,0,1,5,5v8a5,5,0,0,1,-5,5h-74a5,5,0,0,1,-5,-5v-8a5,5,0,0,1,5,-5z"></path><g id="node_text47" fill="black"><text id="kity_text_241" text-rendering="inherit" font-size="12" dy=".8em" y="679.7000000476837" x="333.5">分组加密模式</text></g></g><g id="minder_node48"><g id="node_expander43" display="none" style="cursor: pointer;"><path id="kity_path_457" fill="white" stroke="gray" d="M428.5,661.5A6,6,0,1,1,416.5,661.5A6,6,0,1,1,428.5,661.5"></path><path id="kity_path_458" fill="none" stroke="gray"></path></g><path id="node_outline44" fill="none" stroke="none" d="M433.5,652.5h24a5,5,0,0,1,5,5v8a5,5,0,0,1,-5,5h-24a5,5,0,0,1,-5,-5v-8a5,5,0,0,1,5,-5z"></path><g id="node_text44" fill="black"><text id="kity_text_235" text-rendering="inherit" font-size="12" dy=".8em" y="653.7000000476837" x="433.5">CBC</text></g></g><g id="minder_node49"><g id="node_expander44" display="none" style="cursor: pointer;"><path id="kity_path_460" fill="white" stroke="gray" d="M428.5,687.5A6,6,0,1,1,416.5,687.5A6,6,0,1,1,428.5,687.5"></path><path id="kity_path_461" fill="none" stroke="gray"></path></g><path id="node_outline45" fill="none" stroke="none" d="M433.5,678.5h23a5,5,0,0,1,5,5v8a5,5,0,0,1,-5,5h-23a5,5,0,0,1,-5,-5v-8a5,5,0,0,1,5,-5z"></path><g id="node_text45" fill="black"><text id="kity_text_237" text-rendering="inherit" font-size="12" dy=".8em" y="679.7000000476837" x="433.5">ECB</text></g></g><g id="minder_node50"><g id="node_expander45" display="none" style="cursor: pointer;"><path id="kity_path_463" fill="white" stroke="gray" d="M428.5,713.5A6,6,0,1,1,416.5,713.5A6,6,0,1,1,428.5,713.5"></path><path id="kity_path_464" fill="none" stroke="gray"></path></g><path id="node_outline46" fill="none" stroke="none" d="M433.5,704.5h22a5,5,0,0,1,5,5v8a5,5,0,0,1,-5,5h-22a5,5,0,0,1,-5,-5v-8a5,5,0,0,1,5,-5z"></path><g id="node_text46" fill="black"><text id="kity_text_239" text-rendering="inherit" font-size="12" dy=".8em" y="705.7000000476837" x="433.5">CFB</text></g></g><g id="minder_node51"><g id="node_expander49" style="cursor: pointer;"><path id="kity_path_475" fill="white" stroke="gray" d="M328.5,739.5A6,6,0,1,1,316.5,739.5A6,6,0,1,1,328.5,739.5"></path><path id="kity_path_476" fill="none" stroke="gray" d="M318,739.5L327,739.5"></path></g><path id="node_outline50" fill="none" stroke="none" d="M333.5,730.5h26a5,5,0,0,1,5,5v8a5,5,0,0,1,-5,5h-26a5,5,0,0,1,-5,-5v-8a5,5,0,0,1,5,-5z"></path><g id="node_text50" fill="black"><text id="kity_text_247" text-rendering="inherit" font-size="12" dy=".8em" y="731.7000000476837" x="333.5">填充</text></g></g><g id="minder_node52"><g id="node_expander48" style="cursor: pointer;"><path id="kity_path_472" fill="white" stroke="gray" d="M380.5,739.5A6,6,0,1,1,368.5,739.5A6,6,0,1,1,380.5,739.5"></path><path id="kity_path_473" fill="none" stroke="gray" d="M370,739.5L379,739.5"></path></g><path id="node_outline49" fill="none" stroke="none" d="M385.5,730.5h38a5,5,0,0,1,5,5v8a5,5,0,0,1,-5,5h-38a5,5,0,0,1,-5,-5v-8a5,5,0,0,1,5,-5z"></path><g id="node_text49" fill="black"><text id="kity_text_245" text-rendering="inherit" font-size="12" dy=".8em" y="731.7000000476837" x="385.5">块大小</text></g></g><g id="minder_node53"><g id="node_expander47" display="none" style="cursor: pointer;"><path id="kity_path_469" fill="white" stroke="gray" d="M444.5,739.5A6,6,0,1,1,432.5,739.5A6,6,0,1,1,444.5,739.5"></path><path id="kity_path_470" fill="none" stroke="gray"></path></g><path id="node_outline48" fill="none" stroke="none" d="M449.5,730.5h37a5,5,0,0,1,5,5v8a5,5,0,0,1,-5,5h-37a5,5,0,0,1,-5,-5v-8a5,5,0,0,1,5,-5z"></path><g id="node_text48" fill="black"><text id="kity_text_243" text-rendering="inherit" font-size="12" dy=".8em" y="731.7000000476837" x="449.5">PKCS7</text></g></g><g id="minder_node54"><g id="node_expander51" style="cursor: pointer;"><path id="kity_path_481" fill="white" stroke="gray" d="M328.5,765.5A6,6,0,1,1,316.5,765.5A6,6,0,1,1,328.5,765.5"></path><path id="kity_path_482" fill="none" stroke="gray" d="M318,765.5L327,765.5"></path></g><path id="node_outline52" fill="none" stroke="none" d="M333.5,756.5h62a5,5,0,0,1,5,5v8a5,5,0,0,1,-5,5h-62a5,5,0,0,1,-5,-5v-8a5,5,0,0,1,5,-5z"></path><g id="node_text52" fill="black"><text id="kity_text_251" text-rendering="inherit" font-size="12" dy=".8em" y="757.7000000476837" x="333.5">初始化向量</text></g></g><g id="minder_node55"><g id="node_expander50" display="none" style="cursor: pointer;"><path id="kity_path_478" fill="white" stroke="gray" d="M416.5,765.5A6,6,0,1,1,404.5,765.5A6,6,0,1,1,416.5,765.5"></path><path id="kity_path_479" fill="none" stroke="gray"></path></g><path id="node_outline51" fill="none" stroke="none" d="M421.5,756.5h86a5,5,0,0,1,5,5v8a5,5,0,0,1,-5,5h-86a5,5,0,0,1,-5,-5v-8a5,5,0,0,1,5,-5z"></path><g id="node_text51" fill="black"><text id="kity_text_249" text-rendering="inherit" font-size="12" dy=".8em" y="757.7000000476837" x="421.5">加密结果随机化</text></g></g><g id="minder_node56"><g id="node_expander60" style="cursor: pointer;"><path id="kity_path_508" fill="white" stroke="gray" d="M125.5,825.5A6,6,0,1,1,113.5,825.5A6,6,0,1,1,125.5,825.5"></path><path id="kity_path_509" fill="none" stroke="gray" d="M115,825.5L124,825.5"></path></g><path id="node_outline61" fill="rgb(238, 243, 246)" stroke="rgb(115, 161, 191)" d="M129.5,812.5h91a3,3,0,0,1,3,3v20a3,3,0,0,1,-3,3h-91a3,3,0,0,1,-3,-3v-20a3,3,0,0,1,3,-3z" stroke-width="1"></path><g id="node_text61" fill="black"><text id="kity_text_269" text-rendering="inherit" font-size="14" dy=".8em" y="816.4000000953674" x="146.5">应用场景</text></g></g><g id="minder_node57"><g id="node_expander55" display="none" style="cursor: pointer;"><path id="kity_path_493" fill="white" stroke="gray" d="M239.5,799.5A6,6,0,1,1,227.5,799.5A6,6,0,1,1,239.5,799.5"></path><path id="kity_path_494" fill="none" stroke="gray"></path></g><path id="node_outline56" fill="none" stroke="none" d="M244.5,790.5h74a5,5,0,0,1,5,5v8a5,5,0,0,1,-5,5h-74a5,5,0,0,1,-5,-5v-8a5,5,0,0,1,5,-5z"></path><g id="node_text56" fill="black"><text id="kity_text_259" text-rendering="inherit" font-size="12" dy=".8em" y="791.7000000476837" x="244.5">涉密信息传输</text></g></g><g id="minder_node58"><g id="node_expander57" style="cursor: pointer;"><path id="kity_path_499" fill="white" stroke="gray" d="M239.5,825.5A6,6,0,1,1,227.5,825.5A6,6,0,1,1,239.5,825.5"></path><path id="kity_path_500" fill="none" stroke="gray" d="M229,825.5L238,825.5"></path></g><path id="node_outline58" fill="none" stroke="none" d="M244.5,816.5h62a5,5,0,0,1,5,5v8a5,5,0,0,1,-5,5h-62a5,5,0,0,1,-5,-5v-8a5,5,0,0,1,5,-5z"></path><g id="node_text58" fill="black"><text id="kity_text_263" text-rendering="inherit" font-size="12" dy=".8em" y="817.7000000476837" x="244.5">数据包加密</text></g></g><g id="minder_node59"><g id="node_expander56" display="none" style="cursor: pointer;"><path id="kity_path_496" fill="white" stroke="gray" d="M327.5,825.5A6,6,0,1,1,315.5,825.5A6,6,0,1,1,327.5,825.5"></path><path id="kity_path_497" fill="none" stroke="gray"></path></g><path id="node_outline57" fill="none" stroke="none" d="M332.5,816.5h30a5,5,0,0,1,5,5v8a5,5,0,0,1,-5,5h-30a5,5,0,0,1,-5,-5v-8a5,5,0,0,1,5,-5z"></path><g id="node_text57" fill="black"><text id="kity_text_261" text-rendering="inherit" font-size="12" dy=".8em" y="817.7000000476837" x="332.5">https</text></g></g><g id="minder_node60"><g id="node_expander59" style="cursor: pointer;"><path id="kity_path_505" fill="white" stroke="gray" d="M239.5,851.5A6,6,0,1,1,227.5,851.5A6,6,0,1,1,239.5,851.5"></path><path id="kity_path_506" fill="none" stroke="gray" d="M229,851.5L238,851.5"></path></g><path id="node_outline60" fill="none" stroke="none" d="M244.5,842.5h73a5,5,0,0,1,5,5v8a5,5,0,0,1,-5,5h-73a5,5,0,0,1,-5,-5v-8a5,5,0,0,1,5,-5z"></path><g id="node_text60" fill="black"><text id="kity_text_267" text-rendering="inherit" font-size="12" dy=".8em" y="843.7000000476837" x="244.5">展示信息保护</text></g></g><g id="minder_node61"><g id="node_expander58" display="none" style="cursor: pointer;"><path id="kity_path_502" fill="white" stroke="gray" d="M338.5,851.5A6,6,0,1,1,326.5,851.5A6,6,0,1,1,338.5,851.5"></path><path id="kity_path_503" fill="none" stroke="gray"></path></g><path id="node_outline59" fill="none" stroke="none" d="M343.5,842.5h25a5,5,0,0,1,5,5v8a5,5,0,0,1,-5,5h-25a5,5,0,0,1,-5,-5v-8a5,5,0,0,1,5,-5z"></path><g id="node_text59" fill="black"><text id="kity_text_265" text-rendering="inherit" font-size="12" dy=".8em" y="843.7000000476837" x="343.5">乱码</text></g></g></g></g></svg>