<svg id="kity_svg_6" xmlns="http://www.w3.org/2000/svg" xmlns:xlink="http://www.w3.org/1999/xlink" version="1.1" width="739" height="272" style="background: rgb(251, 251, 251); visibility: visible;" viewBox="0 0 739 272"><defs id="kity_defs_7"><linearGradient id="kity_linearGradient_17" x1="0" y1="0" x2="0" y2="1"><stop id="kity_stop_18" offset="0" stop-color="rgb(255, 255, 255)"></stop><stop id="kity_stop_19" offset="1" stop-color="rgb(204, 204, 204)"></stop></linearGradient><marker id="kity_marker_2" orient="auto" refX="6" refY="0" viewBox="-7 -7 14 14" markerWidth="7" markerHeight="7" markerUnits="userSpaceOnUse"><path id="kity_path_3" fill="rgb(115, 161, 191)" stroke="none" d="M6,0A6,6,0,1,1,-6,0A6,6,0,1,1,6,0"></path></marker></defs><g id="kity_g_8"><g id="minder1" text-rendering="optimize-speed"><g id="minder_connect_group1"><path id="kity_path_31" fill="none" stroke="rgb(115, 161, 191)" stroke-width="1" d="M65,131.5A60.5,98,0,0,1,125.5,33.5"></path><path id="kity_path_33" fill="none" stroke="rgb(115, 161, 191)" stroke-width="1" d="M195.5,33.5C203.5,33.5,203.5,33.5,211.5,33.5"></path><path id="kity_path_35" fill="none" stroke="rgb(115, 161, 191)" stroke-width="1" d="M65,131.5A60.5,34,0,0,1,125.5,97.5"></path><path id="kity_path_37" fill="none" stroke="rgb(115, 161, 191)" stroke-width="1" d="M197.5,97.5C205.5,97.5,205.5,71.5,213.5,71.5"></path><path id="kity_path_39" fill="none" stroke="rgb(115, 161, 191)" stroke-width="1" d="M197.5,97.5C205.5,97.5,205.5,97.5,213.5,97.5"></path><path id="kity_path_41" fill="none" stroke="rgb(115, 161, 191)" stroke-width="1" d="M644.5,97.5C652.5,97.5,652.5,97.5,660.5,97.5"></path><path id="kity_path_43" fill="none" stroke="rgb(115, 161, 191)" stroke-width="1" d="M197.5,97.5C205.5,97.5,205.5,123.5,213.5,123.5"></path><path id="kity_path_45" fill="none" stroke="rgb(115, 161, 191)" stroke-width="1" d="M65,131.5A60.5,39,0,0,0,125.5,170.5"></path><path id="kity_path_47" fill="none" stroke="rgb(115, 161, 191)" stroke-width="1" d="M211.5,170.5C219.5,170.5,219.5,170.5,227.5,170.5"></path><path id="kity_path_49" fill="none" stroke="rgb(115, 161, 191)" stroke-width="1" d="M261.5,170.5C269.5,170.5,269.5,157.5,277.5,157.5"></path><path id="kity_path_51" fill="none" stroke="rgb(115, 161, 191)" stroke-width="1" d="M367.5,157.5C375.5,157.5,375.5,157.5,383.5,157.5"></path><path id="kity_path_53" fill="none" stroke="rgb(115, 161, 191)" stroke-width="1" d="M261.5,170.5C269.5,170.5,269.5,183.5,277.5,183.5"></path><path id="kity_path_55" fill="none" stroke="rgb(115, 161, 191)" stroke-width="1" d="M332.5,183.5C340.5,183.5,340.5,183.5,348.5,183.5"></path><path id="kity_path_57" fill="none" stroke="rgb(115, 161, 191)" stroke-width="1" d="M65,131.5A60.5,99,0,0,0,125.5,230.5"></path><path id="kity_path_59" fill="none" stroke="rgb(115, 161, 191)" stroke-width="1" d="M196.5,230.5C204.5,230.5,204.5,217.5,212.5,217.5"></path><path id="kity_path_61" fill="none" stroke="rgb(115, 161, 191)" stroke-width="1" d="M196.5,230.5C204.5,230.5,204.5,243.5,212.5,243.5"></path></g><g id="minder_node1"><path id="node_outline1" fill="rgb(115, 161, 191)" stroke="rgb(57, 80, 96)" d="M25.5,117.5h79a5,5,0,0,1,5,5v18a5,5,0,0,1,-5,5h-79a5,5,0,0,1,-5,-5v-18a5,5,0,0,1,5,-5z" stroke-width="3"></path><g id="node_text1" fill="white"><text id="kity_text_22" text-rendering="inherit" font-size="16" dy=".8em" y="121.09999990463257" x="32.5">快速排序</text></g></g><g id="kity_g_12"><path id="kity_path_13" fill="none" stroke="none" d="M32.5,131.5h0v0h0z"></path></g><g id="kity_g_14"><path id="kity_path_15" fill="none" stroke="none" d="M32.5,131.5h0v0h0z"></path><path id="kity_path_16" fill="none" stroke="none"></path></g><g id="minder_node2"><g id="node_expander2" style="cursor: pointer;"><path id="kity_path_114" fill="white" stroke="gray" d="M126.5,33.5A6,6,0,1,1,114.5,33.5A6,6,0,1,1,126.5,33.5"></path><path id="kity_path_115" fill="none" stroke="gray" d="M116,33.5L125,33.5"></path></g><path id="node_outline3" fill="rgb(238, 243, 246)" stroke="rgb(115, 161, 191)" d="M130.5,20.5h62a3,3,0,0,1,3,3v20a3,3,0,0,1,-3,3h-62a3,3,0,0,1,-3,-3v-20a3,3,0,0,1,3,-3z" stroke-width="1"></path><g id="node_text3" fill="black"><text id="kity_text_65" text-rendering="inherit" font-size="14" dy=".8em" y="24.40000009536743" x="147.5">延伸</text></g></g><g id="minder_node3"><g id="node_expander1" display="none" style="cursor: pointer;"><path id="kity_path_111" fill="white" stroke="gray" d="M211.5,33.5A6,6,0,1,1,199.5,33.5A6,6,0,1,1,211.5,33.5"></path><path id="kity_path_112" fill="none" stroke="gray"></path></g><path id="node_outline2" fill="none" stroke="none" d="M216.5,24.5h50a5,5,0,0,1,5,5v8a5,5,0,0,1,-5,5h-50a5,5,0,0,1,-5,-5v-8a5,5,0,0,1,5,-5z"></path><g id="node_text2" fill="black"><text id="kity_text_63" text-rendering="inherit" font-size="12" dy=".8em" y="25.700000047683716" x="216.5">快速选择</text></g></g><g id="minder_node4"><g id="node_expander7" style="cursor: pointer;"><path id="kity_path_129" fill="white" stroke="gray" d="M126.5,97.5A6,6,0,1,1,114.5,97.5A6,6,0,1,1,126.5,97.5"></path><path id="kity_path_130" fill="none" stroke="gray" d="M116,97.5L125,97.5"></path></g><path id="node_outline8" fill="rgb(238, 243, 246)" stroke="rgb(115, 161, 191)" d="M130.5,84.5h64a3,3,0,0,1,3,3v20a3,3,0,0,1,-3,3h-64a3,3,0,0,1,-3,-3v-20a3,3,0,0,1,3,-3z" stroke-width="1"></path><g id="node_text8" fill="black"><text id="kity_text_75" text-rendering="inherit" font-size="14" dy=".8em" y="88.40000009536743" x="147.5">核心</text></g></g><g id="minder_node5"><g id="node_expander3" display="none" style="cursor: pointer;"><path id="kity_path_117" fill="white" stroke="gray" d="M213.5,71.5A6,6,0,1,1,201.5,71.5A6,6,0,1,1,213.5,71.5"></path><path id="kity_path_118" fill="none" stroke="gray"></path></g><path id="node_outline4" fill="none" stroke="none" d="M218.5,62.5h98a5,5,0,0,1,5,5v8a5,5,0,0,1,-5,5h-98a5,5,0,0,1,-5,-5v-8a5,5,0,0,1,5,-5z"></path><g id="node_text4" fill="black"><text id="kity_text_67" text-rendering="inherit" font-size="12" dy=".8em" y="63.700000047683716" x="218.5">找到基准值的位置</text></g></g><g id="minder_node6"><g id="node_expander5" style="cursor: pointer;"><path id="kity_path_123" fill="white" stroke="gray" d="M213.5,97.5A6,6,0,1,1,201.5,97.5A6,6,0,1,1,213.5,97.5"></path><path id="kity_path_124" fill="none" stroke="gray" d="M203,97.5L212,97.5"></path></g><path id="node_outline6" fill="none" stroke="none" d="M218.5,88.5h421a5,5,0,0,1,5,5v8a5,5,0,0,1,-5,5h-421a5,5,0,0,1,-5,-5v-8a5,5,0,0,1,5,-5z"></path><g id="node_text6" fill="black"><text id="kity_text_71" text-rendering="inherit" font-size="12" dy=".8em" y="89.70000004768372" x="218.5">将小于基准值的元素放在基准值的前面，将大于基准值的元素放在基准值的后面</text></g></g><g id="minder_node7"><g id="node_expander4" display="none" style="cursor: pointer;"><path id="kity_path_120" fill="white" stroke="gray" d="M660.5,97.5A6,6,0,1,1,648.5,97.5A6,6,0,1,1,660.5,97.5"></path><path id="kity_path_121" fill="none" stroke="gray"></path></g><path id="node_outline5" fill="none" stroke="none" d="M665.5,88.5h49a5,5,0,0,1,5,5v8a5,5,0,0,1,-5,5h-49a5,5,0,0,1,-5,-5v-8a5,5,0,0,1,5,-5z"></path><g id="node_text5" fill="black"><text id="kity_text_69" text-rendering="inherit" font-size="12" dy=".8em" y="89.70000004768372" x="665.5">partition</text></g></g><g id="minder_node8"><g id="node_expander6" display="none" style="cursor: pointer;"><path id="kity_path_126" fill="white" stroke="gray" d="M213.5,123.5A6,6,0,1,1,201.5,123.5A6,6,0,1,1,213.5,123.5"></path><path id="kity_path_127" fill="none" stroke="gray"></path></g><path id="node_outline7" fill="none" stroke="none" d="M218.5,114.5h265a5,5,0,0,1,5,5v8a5,5,0,0,1,-5,5h-265a5,5,0,0,1,-5,-5v-8a5,5,0,0,1,5,-5z"></path><g id="node_text7" fill="black"><text id="kity_text_73" text-rendering="inherit" font-size="12" dy=".8em" y="115.70000004768372" x="218.5">对基准值的左右两侧，递归地进行第一步和第二步</text></g></g><g id="minder_node9"><g id="node_expander13" style="cursor: pointer;"><path id="kity_path_147" fill="white" stroke="gray" d="M126.5,170.5A6,6,0,1,1,114.5,170.5A6,6,0,1,1,126.5,170.5"></path><path id="kity_path_148" fill="none" stroke="gray" d="M116,170.5L125,170.5"></path></g><path id="node_outline14" fill="rgb(238, 243, 246)" stroke="rgb(115, 161, 191)" d="M130.5,157.5h78a3,3,0,0,1,3,3v20a3,3,0,0,1,-3,3h-78a3,3,0,0,1,-3,-3v-20a3,3,0,0,1,3,-3z" stroke-width="1"></path><g id="node_text14" fill="black"><text id="kity_text_87" text-rendering="inherit" font-size="14" dy=".8em" y="161.40000009536743" x="147.5">复杂度</text></g></g><g id="minder_node10"><g id="node_expander12" style="cursor: pointer;"><path id="kity_path_144" fill="white" stroke="gray" d="M227.5,170.5A6,6,0,1,1,215.5,170.5A6,6,0,1,1,227.5,170.5"></path><path id="kity_path_145" fill="none" stroke="gray" d="M217,170.5L226,170.5"></path></g><path id="node_outline13" fill="none" stroke="none" d="M232.5,161.5h24a5,5,0,0,1,5,5v8a5,5,0,0,1,-5,5h-24a5,5,0,0,1,-5,-5v-8a5,5,0,0,1,5,-5z"></path><g id="node_text13" fill="black"><text id="kity_text_85" text-rendering="inherit" font-size="12" dy=".8em" y="162.70000004768372" x="232.5">时间</text></g></g><g id="minder_node11"><g id="node_expander9" style="cursor: pointer;"><path id="kity_path_135" fill="white" stroke="gray" d="M277.5,157.5A6,6,0,1,1,265.5,157.5A6,6,0,1,1,277.5,157.5"></path><path id="kity_path_136" fill="none" stroke="gray" d="M267,157.5L276,157.5"></path></g><path id="node_outline10" fill="none" stroke="none" d="M282.5,148.5h80a5,5,0,0,1,5,5v8a5,5,0,0,1,-5,5h-80a5,5,0,0,1,-5,-5v-8a5,5,0,0,1,5,-5z"></path><g id="node_text10" fill="black"><text id="kity_text_79" text-rendering="inherit" font-size="12" dy=".8em" y="149.70000004768372" x="282.5">O(nlog_{2}{n})</text></g></g><g id="minder_node12"><g id="node_expander8" display="none" style="cursor: pointer;"><path id="kity_path_132" fill="white" stroke="gray" d="M383.5,157.5A6,6,0,1,1,371.5,157.5A6,6,0,1,1,383.5,157.5"></path><path id="kity_path_133" fill="none" stroke="gray"></path></g><path id="node_outline9" fill="none" stroke="none" d="M388.5,148.5h26a5,5,0,0,1,5,5v8a5,5,0,0,1,-5,5h-26a5,5,0,0,1,-5,-5v-8a5,5,0,0,1,5,-5z"></path><g id="node_text9" fill="black"><text id="kity_text_77" text-rendering="inherit" font-size="12" dy=".8em" y="149.70000004768372" x="388.5">最优</text></g></g><g id="minder_node13"><g id="node_expander11" style="cursor: pointer;"><path id="kity_path_141" fill="white" stroke="gray" d="M277.5,183.5A6,6,0,1,1,265.5,183.5A6,6,0,1,1,277.5,183.5"></path><path id="kity_path_142" fill="none" stroke="gray" d="M267,183.5L276,183.5"></path></g><path id="node_outline12" fill="none" stroke="none" d="M282.5,174.5h45a5,5,0,0,1,5,5v8a5,5,0,0,1,-5,5h-45a5,5,0,0,1,-5,-5v-8a5,5,0,0,1,5,-5z"></path><g id="node_text12" fill="black"><text id="kity_text_83" text-rendering="inherit" font-size="12" dy=".8em" y="175.70000004768372" x="282.5">O(n^2)&#xa0;</text></g></g><g id="minder_node14"><g id="node_expander10" display="none" style="cursor: pointer;"><path id="kity_path_138" fill="white" stroke="gray" d="M348.5,183.5A6,6,0,1,1,336.5,183.5A6,6,0,1,1,348.5,183.5"></path><path id="kity_path_139" fill="none" stroke="gray"></path></g><path id="node_outline11" fill="none" stroke="none" d="M353.5,174.5h26a5,5,0,0,1,5,5v8a5,5,0,0,1,-5,5h-26a5,5,0,0,1,-5,-5v-8a5,5,0,0,1,5,-5z"></path><g id="node_text11" fill="black"><text id="kity_text_81" text-rendering="inherit" font-size="12" dy=".8em" y="175.70000004768372" x="353.5">最差</text></g></g><g id="minder_node15"><g id="node_expander16" style="cursor: pointer;"><path id="kity_path_156" fill="white" stroke="gray" d="M126.5,230.5A6,6,0,1,1,114.5,230.5A6,6,0,1,1,126.5,230.5"></path><path id="kity_path_157" fill="none" stroke="gray" d="M116,230.5L125,230.5"></path></g><path id="node_outline17" fill="rgb(238, 243, 246)" stroke="rgb(115, 161, 191)" d="M130.5,217.5h63a3,3,0,0,1,3,3v20a3,3,0,0,1,-3,3h-63a3,3,0,0,1,-3,-3v-20a3,3,0,0,1,3,-3z" stroke-width="1"></path><g id="node_text17" fill="black"><text id="kity_text_93" text-rendering="inherit" font-size="14" dy=".8em" y="221.40000009536743" x="147.5">总结</text></g></g><g id="minder_node16"><g id="node_expander14" display="none" style="cursor: pointer;"><path id="kity_path_150" fill="white" stroke="gray" d="M212.5,217.5A6,6,0,1,1,200.5,217.5A6,6,0,1,1,212.5,217.5"></path><path id="kity_path_151" fill="none" stroke="gray"></path></g><path id="node_outline15" fill="none" stroke="none" d="M217.5,208.5h262a5,5,0,0,1,5,5v8a5,5,0,0,1,-5,5h-262a5,5,0,0,1,-5,-5v-8a5,5,0,0,1,5,-5z"></path><g id="node_text15" fill="black"><text id="kity_text_89" text-rendering="inherit" font-size="12" dy=".8em" y="209.70000004768372" x="217.5">理解 partition 操作，是理解快速排序算法的关键</text></g></g><g id="minder_node17"><g id="node_expander15" display="none" style="cursor: pointer;"><path id="kity_path_153" fill="white" stroke="gray" d="M212.5,243.5A6,6,0,1,1,200.5,243.5A6,6,0,1,1,212.5,243.5"></path><path id="kity_path_154" fill="none" stroke="gray"></path></g><path id="node_outline16" fill="none" stroke="none" d="M217.5,234.5h350a5,5,0,0,1,5,5v8a5,5,0,0,1,-5,5h-350a5,5,0,0,1,-5,-5v-8a5,5,0,0,1,5,-5z"></path><g id="node_text16" fill="black"><text id="kity_text_91" text-rendering="inherit" font-size="12" dy=".8em" y="235.70000004768372" x="217.5">想要理解快排的时间复杂度，最有效的途径就是掌握二叉树分析法</text></g></g></g></g></svg>