<svg id="kity_svg_6" xmlns="http://www.w3.org/2000/svg" xmlns:xlink="http://www.w3.org/1999/xlink" version="1.1" width="1060" height="930" style="background: rgb(251, 251, 251); visibility: visible;" viewBox="0 0 1060 930"><defs id="kity_defs_7"><linearGradient id="kity_linearGradient_17" x1="0" y1="0" x2="0" y2="1"><stop id="kity_stop_18" offset="0" stop-color="rgb(255, 255, 255)"></stop><stop id="kity_stop_19" offset="1" stop-color="rgb(204, 204, 204)"></stop></linearGradient><marker id="kity_marker_2" orient="auto" refX="6" refY="0" viewBox="-7 -7 14 14" markerWidth="7" markerHeight="7" markerUnits="userSpaceOnUse"><path id="kity_path_3" fill="rgb(115, 161, 191)" stroke="none" d="M6,0A6,6,0,1,1,-6,0A6,6,0,1,1,6,0"></path></marker></defs><g id="kity_g_8"><g id="minder1" text-rendering="optimize-speed"><g id="minder_connect_group1"><path id="kity_path_31" fill="none" stroke="rgb(115, 161, 191)" stroke-width="1" d="M87.5,491.5A83,384,0,0,1,170.5,107.5"></path><path id="kity_path_33" fill="none" stroke="rgb(115, 161, 191)" stroke-width="1" d="M480.5,107.5C488.5,107.5,488.5,42.5,496.5,42.5"></path><path id="kity_path_35" fill="none" stroke="rgb(115, 161, 191)" stroke-width="1" d="M556.5,42.5C564.5,42.5,564.5,42.5,572.5,42.5"></path><path id="kity_path_37" fill="none" stroke="rgb(115, 161, 191)" stroke-width="1" d="M608.5,42.5C616.5,42.5,616.5,29.5,624.5,29.5"></path><path id="kity_path_39" fill="none" stroke="rgb(115, 161, 191)" stroke-width="1" d="M608.5,42.5C616.5,42.5,616.5,55.5,624.5,55.5"></path><path id="kity_path_41" fill="none" stroke="rgb(115, 161, 191)" stroke-width="1" d="M480.5,107.5C488.5,107.5,488.5,81.5,496.5,81.5"></path><path id="kity_path_43" fill="none" stroke="rgb(115, 161, 191)" stroke-width="1" d="M543.5,81.5C551.5,81.5,551.5,81.5,559.5,81.5"></path><path id="kity_path_45" fill="none" stroke="rgb(115, 161, 191)" stroke-width="1" d="M480.5,107.5C488.5,107.5,488.5,120.5,496.5,120.5"></path><path id="kity_path_47" fill="none" stroke="rgb(115, 161, 191)" stroke-width="1" d="M532.5,120.5C540.5,120.5,540.5,107.5,548.5,107.5"></path><path id="kity_path_49" fill="none" stroke="rgb(115, 161, 191)" stroke-width="1" d="M532.5,120.5C540.5,120.5,540.5,133.5,548.5,133.5"></path><path id="kity_path_51" fill="none" stroke="rgb(115, 161, 191)" stroke-width="1" d="M480.5,107.5C488.5,107.5,488.5,172.5,496.5,172.5"></path><path id="kity_path_53" fill="none" stroke="rgb(115, 161, 191)" stroke-width="1" d="M531.5,172.5C539.5,172.5,539.5,159.5,547.5,159.5"></path><path id="kity_path_55" fill="none" stroke="rgb(115, 161, 191)" stroke-width="1" d="M531.5,172.5C539.5,172.5,539.5,185.5,547.5,185.5"></path><path id="kity_path_57" fill="none" stroke="rgb(115, 161, 191)" stroke-width="1" d="M87.5,491.5A83,220,0,0,1,170.5,271.5"></path><path id="kity_path_59" fill="none" stroke="rgb(115, 161, 191)" stroke-width="1" d="M357.5,271.5C365.5,271.5,365.5,232.5,373.5,232.5"></path><path id="kity_path_61" fill="none" stroke="rgb(115, 161, 191)" stroke-width="1" d="M408.5,232.5C416.5,232.5,416.5,219.5,424.5,219.5"></path><path id="kity_path_63" fill="none" stroke="rgb(115, 161, 191)" stroke-width="1" d="M408.5,232.5C416.5,232.5,416.5,245.5,424.5,245.5"></path><path id="kity_path_65" fill="none" stroke="rgb(115, 161, 191)" stroke-width="1" d="M357.5,271.5C365.5,271.5,365.5,310.5,373.5,310.5"></path><path id="kity_path_67" fill="none" stroke="rgb(115, 161, 191)" stroke-width="1" d="M409.5,310.5C417.5,310.5,417.5,271.5,425.5,271.5"></path><path id="kity_path_69" fill="none" stroke="rgb(115, 161, 191)" stroke-width="1" d="M409.5,310.5C417.5,310.5,417.5,297.5,425.5,297.5"></path><path id="kity_path_71" fill="none" stroke="rgb(115, 161, 191)" stroke-width="1" d="M409.5,310.5C417.5,310.5,417.5,323.5,425.5,323.5"></path><path id="kity_path_73" fill="none" stroke="rgb(115, 161, 191)" stroke-width="1" d="M409.5,310.5C417.5,310.5,417.5,349.5,425.5,349.5"></path><path id="kity_path_75" fill="none" stroke="rgb(115, 161, 191)" stroke-width="1" d="M87.5,491.5A83,9,0,0,0,170.5,500.5"></path><path id="kity_path_77" fill="none" stroke="rgb(115, 161, 191)" stroke-width="1" d="M418.5,500.5C426.5,500.5,426.5,409.5,434.5,409.5"></path><path id="kity_path_79" fill="none" stroke="rgb(115, 161, 191)" stroke-width="1" d="M469.5,409.5C477.5,409.5,477.5,383.5,485.5,383.5"></path><path id="kity_path_81" fill="none" stroke="rgb(115, 161, 191)" stroke-width="1" d="M658.5,383.5C666.5,383.5,666.5,383.5,674.5,383.5"></path><path id="kity_path_83" fill="none" stroke="rgb(115, 161, 191)" stroke-width="1" d="M469.5,409.5C477.5,409.5,477.5,409.5,485.5,409.5"></path><path id="kity_path_85" fill="none" stroke="rgb(115, 161, 191)" stroke-width="1" d="M469.5,409.5C477.5,409.5,477.5,435.5,485.5,435.5"></path><path id="kity_path_87" fill="none" stroke="rgb(115, 161, 191)" stroke-width="1" d="M418.5,500.5C426.5,500.5,426.5,533.5,434.5,533.5"></path><path id="kity_path_89" fill="none" stroke="rgb(115, 161, 191)" stroke-width="1" d="M470.5,533.5C478.5,533.5,478.5,501.5,486.5,501.5"></path><path id="kity_path_91" fill="none" stroke="rgb(115, 161, 191)" stroke-width="1" d="M546.5,501.5C554.5,501.5,554.5,462.5,562.5,462.5"></path><path id="kity_path_93" fill="none" stroke="rgb(115, 161, 191)" stroke-width="1" d="M546.5,501.5C554.5,501.5,554.5,488.5,562.5,488.5"></path><path id="kity_path_95" fill="none" stroke="rgb(115, 161, 191)" stroke-width="1" d="M546.5,501.5C554.5,501.5,554.5,514.5,562.5,514.5"></path><path id="kity_path_97" fill="none" stroke="rgb(115, 161, 191)" stroke-width="1" d="M546.5,501.5C554.5,501.5,554.5,540.5,562.5,540.5"></path><path id="kity_path_99" fill="none" stroke="rgb(115, 161, 191)" stroke-width="1" d="M470.5,533.5C478.5,533.5,478.5,566.5,486.5,566.5"></path><path id="kity_path_101" fill="none" stroke="rgb(115, 161, 191)" stroke-width="1" d="M418.5,500.5C426.5,500.5,426.5,591.5,434.5,591.5"></path><path id="kity_path_103" fill="none" stroke="rgb(115, 161, 191)" stroke-width="1" d="M470.5,591.5C478.5,591.5,478.5,591.5,486.5,591.5"></path><path id="kity_path_105" fill="none" stroke="rgb(115, 161, 191)" stroke-width="1" d="M87.5,491.5A83,147,0,0,0,170.5,638.5"></path><path id="kity_path_107" fill="none" stroke="rgb(115, 161, 191)" stroke-width="1" d="M241.5,638.5C249.5,638.5,249.5,625.5,257.5,625.5"></path><path id="kity_path_109" fill="none" stroke="rgb(115, 161, 191)" stroke-width="1" d="M241.5,638.5C249.5,638.5,249.5,651.5,257.5,651.5"></path><path id="kity_path_111" fill="none" stroke="rgb(115, 161, 191)" stroke-width="1" d="M87.5,491.5A83,259,0,0,0,170.5,750.5"></path><path id="kity_path_113" fill="none" stroke="rgb(115, 161, 191)" stroke-width="1" d="M256.5,750.5C264.5,750.5,264.5,685.5,272.5,685.5"></path><path id="kity_path_115" fill="none" stroke="rgb(115, 161, 191)" stroke-width="1" d="M256.5,750.5C264.5,750.5,264.5,711.5,272.5,711.5"></path><path id="kity_path_117" fill="none" stroke="rgb(115, 161, 191)" stroke-width="1" d="M256.5,750.5C264.5,750.5,264.5,737.5,272.5,737.5"></path><path id="kity_path_119" fill="none" stroke="rgb(115, 161, 191)" stroke-width="1" d="M256.5,750.5C264.5,750.5,264.5,763.5,272.5,763.5"></path><path id="kity_path_121" fill="none" stroke="rgb(115, 161, 191)" stroke-width="1" d="M256.5,750.5C264.5,750.5,264.5,789.5,272.5,789.5"></path><path id="kity_path_123" fill="none" stroke="rgb(115, 161, 191)" stroke-width="1" d="M256.5,750.5C264.5,750.5,264.5,815.5,272.5,815.5"></path><path id="kity_path_125" fill="none" stroke="rgb(115, 161, 191)" stroke-width="1" d="M87.5,491.5A83,384,0,0,0,170.5,875.5"></path><path id="kity_path_127" fill="none" stroke="rgb(115, 161, 191)" stroke-width="1" d="M242.5,875.5C250.5,875.5,250.5,849.5,258.5,849.5"></path><path id="kity_path_129" fill="none" stroke="rgb(115, 161, 191)" stroke-width="1" d="M242.5,875.5C250.5,875.5,250.5,875.5,258.5,875.5"></path><path id="kity_path_131" fill="none" stroke="rgb(115, 161, 191)" stroke-width="1" d="M242.5,875.5C250.5,875.5,250.5,901.5,258.5,901.5"></path></g><g id="minder_node1"><path id="node_outline1" fill="rgb(115, 161, 191)" stroke="rgb(57, 80, 96)" d="M25.5,477.5h124a5,5,0,0,1,5,5v18a5,5,0,0,1,-5,5h-124a5,5,0,0,1,-5,-5v-18a5,5,0,0,1,5,-5z" stroke-width="3"></path><g id="node_text1" fill="white"><text id="kity_text_22" text-rendering="inherit" font-size="16" dy=".8em" y="481.09999990463257" x="32.5">高阶组件&#xa0; HOC</text></g></g><g id="kity_g_12"><path id="kity_path_13" fill="none" stroke="none" d="M32.5,491.5h0v0h0z"></path></g><g id="kity_g_14"><path id="kity_path_15" fill="none" stroke="none" d="M32.5,491.5h0v0h0z"></path><path id="kity_path_16" fill="none" stroke="none"></path></g><g id="minder_node2"><g id="node_expander13" style="cursor: pointer;"><path id="kity_path_322" fill="white" stroke="gray" d="M171.5,107.5A6,6,0,1,1,159.5,107.5A6,6,0,1,1,171.5,107.5"></path><path id="kity_path_323" fill="none" stroke="gray" d="M161,107.5L170,107.5"></path></g><path id="node_outline14" fill="rgb(238, 243, 246)" stroke="rgb(115, 161, 191)" d="M175.5,94.5h302a3,3,0,0,1,3,3v20a3,3,0,0,1,-3,3h-302a3,3,0,0,1,-3,-3v-20a3,3,0,0,1,3,-3z" stroke-width="1"></path><g id="node_text14" fill="black"><text id="kity_text_157" text-rendering="inherit" font-size="14" dy=".8em" y="98.40000009536743" x="192.5">高阶组件就是一个组件包裹着另外一个组件</text></g></g><g id="minder_node3"><g id="node_expander4" style="cursor: pointer;"><path id="kity_path_295" fill="white" stroke="gray" d="M496.5,42.5A6,6,0,1,1,484.5,42.5A6,6,0,1,1,496.5,42.5"></path><path id="kity_path_296" fill="none" stroke="gray" d="M486,42.5L495,42.5"></path></g><path id="node_outline5" fill="none" stroke="none" d="M501.5,33.5h50a5,5,0,0,1,5,5v8a5,5,0,0,1,-5,5h-50a5,5,0,0,1,-5,-5v-8a5,5,0,0,1,5,-5z"></path><g id="node_text5" fill="black"><text id="kity_text_139" text-rendering="inherit" font-size="12" dy=".8em" y="34.700000047683716" x="501.5">高阶函数</text></g></g><g id="minder_node4"><g id="node_expander3" style="cursor: pointer;"><path id="kity_path_292" fill="white" stroke="gray" d="M572.5,42.5A6,6,0,1,1,560.5,42.5A6,6,0,1,1,572.5,42.5"></path><path id="kity_path_293" fill="none" stroke="gray" d="M562,42.5L571,42.5"></path></g><path id="node_outline4" fill="none" stroke="none" d="M577.5,33.5h26a5,5,0,0,1,5,5v8a5,5,0,0,1,-5,5h-26a5,5,0,0,1,-5,-5v-8a5,5,0,0,1,5,-5z"></path><g id="node_text4" fill="black"><text id="kity_text_137" text-rendering="inherit" font-size="12" dy=".8em" y="34.700000047683716" x="577.5">特征</text></g></g><g id="minder_node5"><g id="node_expander1" display="none" style="cursor: pointer;"><path id="kity_path_286" fill="white" stroke="gray" d="M624.5,29.5A6,6,0,1,1,612.5,29.5A6,6,0,1,1,624.5,29.5"></path><path id="kity_path_287" fill="none" stroke="gray"></path></g><path id="node_outline2" fill="none" stroke="none" d="M629.5,20.5h97a5,5,0,0,1,5,5v8a5,5,0,0,1,-5,5h-97a5,5,0,0,1,-5,-5v-8a5,5,0,0,1,5,-5z"></path><g id="node_text2" fill="black"><text id="kity_text_133" text-rendering="inherit" font-size="12" dy=".8em" y="21.700000047683716" x="629.5">函数作为参数传递</text></g></g><g id="minder_node6"><g id="node_expander2" display="none" style="cursor: pointer;"><path id="kity_path_289" fill="white" stroke="gray" d="M624.5,55.5A6,6,0,1,1,612.5,55.5A6,6,0,1,1,624.5,55.5"></path><path id="kity_path_290" fill="none" stroke="gray"></path></g><path id="node_outline3" fill="none" stroke="none" d="M629.5,46.5h108a5,5,0,0,1,5,5v8a5,5,0,0,1,-5,5h-108a5,5,0,0,1,-5,-5v-8a5,5,0,0,1,5,-5z"></path><g id="node_text3" fill="black"><text id="kity_text_135" text-rendering="inherit" font-size="12" dy=".8em" y="47.700000047683716" x="629.5">函数作为返回值输出</text></g></g><g id="minder_node7"><g id="node_expander6" style="cursor: pointer;"><path id="kity_path_301" fill="white" stroke="gray" d="M496.5,81.5A6,6,0,1,1,484.5,81.5A6,6,0,1,1,496.5,81.5"></path><path id="kity_path_302" fill="none" stroke="gray" d="M486,81.5L495,81.5"></path></g><path id="node_outline7" fill="none" stroke="none" d="M501.5,72.5h37a5,5,0,0,1,5,5v8a5,5,0,0,1,-5,5h-37a5,5,0,0,1,-5,-5v-8a5,5,0,0,1,5,-5z"></path><g id="node_text7" fill="black"><text id="kity_text_143" text-rendering="inherit" font-size="12" dy=".8em" y="73.70000004768372" x="501.5">类工厂</text></g></g><g id="minder_node8"><g id="node_expander5" display="none" style="cursor: pointer;"><path id="kity_path_298" fill="white" stroke="gray" d="M559.5,81.5A6,6,0,1,1,547.5,81.5A6,6,0,1,1,559.5,81.5"></path><path id="kity_path_299" fill="none" stroke="gray"></path></g><path id="node_outline6" fill="none" stroke="none" d="M564.5,72.5h335a5,5,0,0,1,5,5v8a5,5,0,0,1,-5,5h-335a5,5,0,0,1,-5,-5v-8a5,5,0,0,1,5,-5z"></path><g id="node_text6" fill="black"><text id="kity_text_141" text-rendering="inherit" font-size="12" dy=".8em" y="73.70000004768372" x="564.5">hocFactory:: W: React.Component =&gt; E: React.Component</text></g></g><g id="minder_node9"><g id="node_expander9" style="cursor: pointer;"><path id="kity_path_310" fill="white" stroke="gray" d="M496.5,120.5A6,6,0,1,1,484.5,120.5A6,6,0,1,1,496.5,120.5"></path><path id="kity_path_311" fill="none" stroke="gray" d="M486,120.5L495,120.5"></path></g><path id="node_outline10" fill="none" stroke="none" d="M501.5,111.5h26a5,5,0,0,1,5,5v8a5,5,0,0,1,-5,5h-26a5,5,0,0,1,-5,-5v-8a5,5,0,0,1,5,-5z"></path><g id="node_text10" fill="black"><text id="kity_text_149" text-rendering="inherit" font-size="12" dy=".8em" y="112.70000004768372" x="501.5">包裹</text></g></g><g id="minder_node10"><g id="node_expander7" display="none" style="cursor: pointer;"><path id="kity_path_304" fill="white" stroke="gray" d="M548.5,107.5A6,6,0,1,1,536.5,107.5A6,6,0,1,1,548.5,107.5"></path><path id="kity_path_305" fill="none" stroke="gray"></path></g><path id="node_outline8" fill="none" stroke="none" d="M553.5,98.5h69a5,5,0,0,1,5,5v8a5,5,0,0,1,-5,5h-69a5,5,0,0,1,-5,-5v-8a5,5,0,0,1,5,-5z"></path><g id="node_text8" fill="black"><text id="kity_text_145" text-rendering="inherit" font-size="12" dy=".8em" y="99.70000004768372" x="553.5">Props Proxy</text></g></g><g id="minder_node11"><g id="node_expander8" display="none" style="cursor: pointer;"><path id="kity_path_307" fill="white" stroke="gray" d="M548.5,133.5A6,6,0,1,1,536.5,133.5A6,6,0,1,1,548.5,133.5"></path><path id="kity_path_308" fill="none" stroke="gray"></path></g><path id="node_outline9" fill="none" stroke="none" d="M553.5,124.5h120a5,5,0,0,1,5,5v8a5,5,0,0,1,-5,5h-120a5,5,0,0,1,-5,-5v-8a5,5,0,0,1,5,-5z"></path><g id="node_text9" fill="black"><text id="kity_text_147" text-rendering="inherit" font-size="12" dy=".8em" y="125.70000004768372" x="553.5">Inheritance Inversion</text></g></g><g id="minder_node12"><g id="node_expander12" style="cursor: pointer;"><path id="kity_path_319" fill="white" stroke="gray" d="M496.5,172.5A6,6,0,1,1,484.5,172.5A6,6,0,1,1,496.5,172.5"></path><path id="kity_path_320" fill="none" stroke="gray" d="M486,172.5L495,172.5"></path></g><path id="node_outline13" fill="none" stroke="none" d="M501.5,163.5h25a5,5,0,0,1,5,5v8a5,5,0,0,1,-5,5h-25a5,5,0,0,1,-5,-5v-8a5,5,0,0,1,5,-5z"></path><g id="node_text13" fill="black"><text id="kity_text_155" text-rendering="inherit" font-size="12" dy=".8em" y="164.70000004768372" x="501.5">作用</text></g></g><g id="minder_node13"><g id="node_expander10" display="none" style="cursor: pointer;"><path id="kity_path_313" fill="white" stroke="gray" d="M547.5,159.5A6,6,0,1,1,535.5,159.5A6,6,0,1,1,547.5,159.5"></path><path id="kity_path_314" fill="none" stroke="gray"></path></g><path id="node_outline11" fill="none" stroke="none" d="M552.5,150.5h49a5,5,0,0,1,5,5v8a5,5,0,0,1,-5,5h-49a5,5,0,0,1,-5,-5v-8a5,5,0,0,1,5,-5z"></path><g id="node_text11" fill="black"><text id="kity_text_151" text-rendering="inherit" font-size="12" dy=".8em" y="151.70000004768372" x="552.5">额外功能</text></g></g><g id="minder_node14"><g id="node_expander11" display="none" style="cursor: pointer;"><path id="kity_path_316" fill="white" stroke="gray" d="M547.5,185.5A6,6,0,1,1,535.5,185.5A6,6,0,1,1,547.5,185.5"></path><path id="kity_path_317" fill="none" stroke="gray"></path></g><path id="node_outline12" fill="none" stroke="none" d="M552.5,176.5h50a5,5,0,0,1,5,5v8a5,5,0,0,1,-5,5h-50a5,5,0,0,1,-5,-5v-8a5,5,0,0,1,5,-5z"></path><g id="node_text12" fill="black"><text id="kity_text_153" text-rendering="inherit" font-size="12" dy=".8em" y="177.70000004768372" x="552.5">额外属性</text></g></g><g id="minder_node15"><g id="node_expander22" style="cursor: pointer;"><path id="kity_path_349" fill="white" stroke="gray" d="M171.5,271.5A6,6,0,1,1,159.5,271.5A6,6,0,1,1,171.5,271.5"></path><path id="kity_path_350" fill="none" stroke="gray" d="M161,271.5L170,271.5"></path></g><path id="node_outline23" fill="rgb(238, 243, 246)" stroke="rgb(115, 161, 191)" d="M175.5,258.5h179a3,3,0,0,1,3,3v20a3,3,0,0,1,-3,3h-179a3,3,0,0,1,-3,-3v-20a3,3,0,0,1,3,-3z" stroke-width="1"></path><g id="node_text23" fill="black"><text id="kity_text_175" text-rendering="inherit" font-size="14" dy=".8em" y="262.40000009536743" x="192.5">Props Proxy(代理方式)</text></g></g><g id="minder_node16"><g id="node_expander16" style="cursor: pointer;"><path id="kity_path_331" fill="white" stroke="gray" d="M373.5,232.5A6,6,0,1,1,361.5,232.5A6,6,0,1,1,373.5,232.5"></path><path id="kity_path_332" fill="none" stroke="gray" d="M363,232.5L372,232.5"></path></g><path id="node_outline17" fill="none" stroke="none" d="M378.5,223.5h25a5,5,0,0,1,5,5v8a5,5,0,0,1,-5,5h-25a5,5,0,0,1,-5,-5v-8a5,5,0,0,1,5,-5z"></path><g id="node_text17" fill="black"><text id="kity_text_163" text-rendering="inherit" font-size="12" dy=".8em" y="224.70000004768372" x="378.5">特点</text></g></g><g id="minder_node17"><g id="node_expander14" display="none" style="cursor: pointer;"><path id="kity_path_325" fill="white" stroke="gray" d="M424.5,219.5A6,6,0,1,1,412.5,219.5A6,6,0,1,1,424.5,219.5"></path><path id="kity_path_326" fill="none" stroke="gray"></path></g><path id="node_outline15" fill="none" stroke="none" d="M429.5,210.5h114a5,5,0,0,1,5,5v8a5,5,0,0,1,-5,5h-114a5,5,0,0,1,-5,-5v-8a5,5,0,0,1,5,-5z"></path><g id="node_text15" fill="black"><text id="kity_text_159" text-rendering="inherit" font-size="12" dy=".8em" y="211.70000004768372" x="429.5">返回&#xa0; React Element</text></g></g><g id="minder_node18"><g id="node_expander15" display="none" style="cursor: pointer;"><path id="kity_path_328" fill="white" stroke="gray" d="M424.5,245.5A6,6,0,1,1,412.5,245.5A6,6,0,1,1,424.5,245.5"></path><path id="kity_path_329" fill="none" stroke="gray"></path></g><path id="node_outline16" fill="none" stroke="none" d="M429.5,236.5h168a5,5,0,0,1,5,5v8a5,5,0,0,1,-5,5h-168a5,5,0,0,1,-5,-5v-8a5,5,0,0,1,5,-5z"></path><g id="node_text16" fill="black"><text id="kity_text_161" text-rendering="inherit" font-size="12" dy=".8em" y="237.70000004768372" x="429.5">还传入了 HOC 接收到的 props</text></g></g><g id="minder_node19"><g id="node_expander21" style="cursor: pointer;"><path id="kity_path_346" fill="white" stroke="gray" d="M373.5,310.5A6,6,0,1,1,361.5,310.5A6,6,0,1,1,373.5,310.5"></path><path id="kity_path_347" fill="none" stroke="gray" d="M363,310.5L372,310.5"></path></g><path id="node_outline22" fill="none" stroke="none" d="M378.5,301.5h26a5,5,0,0,1,5,5v8a5,5,0,0,1,-5,5h-26a5,5,0,0,1,-5,-5v-8a5,5,0,0,1,5,-5z"></path><g id="node_text22" fill="black"><text id="kity_text_173" text-rendering="inherit" font-size="12" dy=".8em" y="302.7000000476837" x="378.5">用处</text></g></g><g id="minder_node20"><g id="node_expander17" display="none" style="cursor: pointer;"><path id="kity_path_334" fill="white" stroke="gray" d="M425.5,271.5A6,6,0,1,1,413.5,271.5A6,6,0,1,1,425.5,271.5"></path><path id="kity_path_335" fill="none" stroke="gray"></path></g><path id="node_outline18" fill="none" stroke="none" d="M430.5,262.5h62a5,5,0,0,1,5,5v8a5,5,0,0,1,-5,5h-62a5,5,0,0,1,-5,-5v-8a5,5,0,0,1,5,-5z"></path><g id="node_text18" fill="black"><text id="kity_text_165" text-rendering="inherit" font-size="12" dy=".8em" y="263.7000000476837" x="430.5">操作 props</text></g></g><g id="minder_node21"><g id="node_expander18" display="none" style="cursor: pointer;"><path id="kity_path_337" fill="white" stroke="gray" d="M425.5,297.5A6,6,0,1,1,413.5,297.5A6,6,0,1,1,425.5,297.5"></path><path id="kity_path_338" fill="none" stroke="gray"></path></g><path id="node_outline19" fill="none" stroke="none" d="M430.5,288.5h140a5,5,0,0,1,5,5v8a5,5,0,0,1,-5,5h-140a5,5,0,0,1,-5,-5v-8a5,5,0,0,1,5,-5z"></path><g id="node_text19" fill="black"><text id="kity_text_167" text-rendering="inherit" font-size="12" dy=".8em" y="289.7000000476837" x="430.5">通过 Refs 访问到组件实例</text></g></g><g id="minder_node22"><g id="node_expander19" display="none" style="cursor: pointer;"><path id="kity_path_340" fill="white" stroke="gray" d="M425.5,323.5A6,6,0,1,1,413.5,323.5A6,6,0,1,1,425.5,323.5"></path><path id="kity_path_341" fill="none" stroke="gray"></path></g><path id="node_outline20" fill="none" stroke="none" d="M430.5,314.5h57a5,5,0,0,1,5,5v8a5,5,0,0,1,-5,5h-57a5,5,0,0,1,-5,-5v-8a5,5,0,0,1,5,-5z"></path><g id="node_text20" fill="black"><text id="kity_text_169" text-rendering="inherit" font-size="12" dy=".8em" y="315.7000000476837" x="430.5">提取 state</text></g></g><g id="minder_node23"><g id="node_expander20" display="none" style="cursor: pointer;"><path id="kity_path_343" fill="white" stroke="gray" d="M425.5,349.5A6,6,0,1,1,413.5,349.5A6,6,0,1,1,425.5,349.5"></path><path id="kity_path_344" fill="none" stroke="gray"></path></g><path id="node_outline21" fill="none" stroke="none" d="M430.5,340.5h211a5,5,0,0,1,5,5v8a5,5,0,0,1,-5,5h-211a5,5,0,0,1,-5,-5v-8a5,5,0,0,1,5,-5z"></path><g id="node_text21" fill="black"><text id="kity_text_171" text-rendering="inherit" font-size="12" dy=".8em" y="341.7000000476837" x="430.5">用其他元素包裹 WrappedComponent</text></g></g><g id="minder_node24"><g id="node_expander37" style="cursor: pointer;"><path id="kity_path_394" fill="white" stroke="gray" d="M171.5,500.5A6,6,0,1,1,159.5,500.5A6,6,0,1,1,171.5,500.5"></path><path id="kity_path_395" fill="none" stroke="gray" d="M161,500.5L170,500.5"></path></g><path id="node_outline38" fill="rgb(238, 243, 246)" stroke="rgb(115, 161, 191)" d="M175.5,487.5h240a3,3,0,0,1,3,3v20a3,3,0,0,1,-3,3h-240a3,3,0,0,1,-3,-3v-20a3,3,0,0,1,3,-3z" stroke-width="1"></path><g id="node_text38" fill="black"><text id="kity_text_205" text-rendering="inherit" font-size="14" dy=".8em" y="491.40000009536743" x="192.5">Inheritance Inversion(继承方式)</text></g></g><g id="minder_node25"><g id="node_expander27" style="cursor: pointer;"><path id="kity_path_364" fill="white" stroke="gray" d="M434.5,409.5A6,6,0,1,1,422.5,409.5A6,6,0,1,1,434.5,409.5"></path><path id="kity_path_365" fill="none" stroke="gray" d="M424,409.5L433,409.5"></path></g><path id="node_outline28" fill="none" stroke="none" d="M439.5,400.5h25a5,5,0,0,1,5,5v8a5,5,0,0,1,-5,5h-25a5,5,0,0,1,-5,-5v-8a5,5,0,0,1,5,-5z"></path><g id="node_text28" fill="black"><text id="kity_text_185" text-rendering="inherit" font-size="12" dy=".8em" y="401.7000000476837" x="439.5">特点</text></g></g><g id="minder_node26"><g id="node_expander24" style="cursor: pointer;"><path id="kity_path_355" fill="white" stroke="gray" d="M485.5,383.5A6,6,0,1,1,473.5,383.5A6,6,0,1,1,485.5,383.5"></path><path id="kity_path_356" fill="none" stroke="gray" d="M475,383.5L484,383.5"></path></g><path id="node_outline25" fill="none" stroke="none" d="M490.5,374.5h163a5,5,0,0,1,5,5v8a5,5,0,0,1,-5,5h-163a5,5,0,0,1,-5,-5v-8a5,5,0,0,1,5,-5z"></path><g id="node_text25" fill="black"><text id="kity_text_179" text-rendering="inherit" font-size="12" dy=".8em" y="375.7000000476837" x="490.5">继承了 WrappedComponent</text></g></g><g id="minder_node27"><g id="node_expander23" display="none" style="cursor: pointer;"><path id="kity_path_352" fill="white" stroke="gray" d="M674.5,383.5A6,6,0,1,1,662.5,383.5A6,6,0,1,1,674.5,383.5"></path><path id="kity_path_353" fill="none" stroke="gray"></path></g><path id="node_outline24" fill="none" stroke="none" d="M679.5,374.5h214a5,5,0,0,1,5,5v8a5,5,0,0,1,-5,5h-214a5,5,0,0,1,-5,-5v-8a5,5,0,0,1,5,-5z"></path><g id="node_text24" fill="black"><text id="kity_text_177" text-rendering="inherit" font-size="12" dy=".8em" y="375.7000000476837" x="679.5">通过 this 访问到 WrappedComponent</text></g></g><g id="minder_node28"><g id="node_expander25" display="none" style="cursor: pointer;"><path id="kity_path_358" fill="white" stroke="gray" d="M485.5,409.5A6,6,0,1,1,473.5,409.5A6,6,0,1,1,485.5,409.5"></path><path id="kity_path_359" fill="none" stroke="gray"></path></g><path id="node_outline26" fill="none" stroke="none" d="M490.5,400.5h98a5,5,0,0,1,5,5v8a5,5,0,0,1,-5,5h-98a5,5,0,0,1,-5,-5v-8a5,5,0,0,1,5,-5z"></path><g id="node_text26" fill="black"><text id="kity_text_181" text-rendering="inherit" font-size="12" dy=".8em" y="401.7000000476837" x="490.5">关系看上去被反转</text></g></g><g id="minder_node29"><g id="node_expander26" display="none" style="cursor: pointer;"><path id="kity_path_361" fill="white" stroke="gray" d="M485.5,435.5A6,6,0,1,1,473.5,435.5A6,6,0,1,1,485.5,435.5"></path><path id="kity_path_362" fill="none" stroke="gray"></path></g><path id="node_outline27" fill="none" stroke="none" d="M490.5,426.5h170a5,5,0,0,1,5,5v8a5,5,0,0,1,-5,5h-170a5,5,0,0,1,-5,-5v-8a5,5,0,0,1,5,-5z"></path><g id="node_text27" fill="black"><text id="kity_text_183" text-rendering="inherit" font-size="12" dy=".8em" y="427.7000000476837" x="490.5">高阶组件不一定会解析完整子树</text></g></g><g id="minder_node30"><g id="node_expander34" style="cursor: pointer;"><path id="kity_path_385" fill="white" stroke="gray" d="M434.5,533.5A6,6,0,1,1,422.5,533.5A6,6,0,1,1,434.5,533.5"></path><path id="kity_path_386" fill="none" stroke="gray" d="M424,533.5L433,533.5"></path></g><path id="node_outline35" fill="none" stroke="none" d="M439.5,524.5h26a5,5,0,0,1,5,5v8a5,5,0,0,1,-5,5h-26a5,5,0,0,1,-5,-5v-8a5,5,0,0,1,5,-5z"></path><g id="node_text35" fill="black"><text id="kity_text_199" text-rendering="inherit" font-size="12" dy=".8em" y="525.7000000476837" x="439.5">用处</text></g></g><g id="minder_node31"><g id="node_expander32" style="cursor: pointer;"><path id="kity_path_379" fill="white" stroke="gray" d="M486.5,501.5A6,6,0,1,1,474.5,501.5A6,6,0,1,1,486.5,501.5"></path><path id="kity_path_380" fill="none" stroke="gray" d="M476,501.5L485,501.5"></path></g><path id="node_outline33" fill="none" stroke="none" d="M491.5,492.5h50a5,5,0,0,1,5,5v8a5,5,0,0,1,-5,5h-50a5,5,0,0,1,-5,-5v-8a5,5,0,0,1,5,-5z"></path><g id="node_text33" fill="black"><text id="kity_text_195" text-rendering="inherit" font-size="12" dy=".8em" y="493.7000000476837" x="491.5">渲染劫持</text></g></g><g id="minder_node32"><g id="node_expander28" display="none" style="cursor: pointer;"><path id="kity_path_367" fill="white" stroke="gray" d="M562.5,462.5A6,6,0,1,1,550.5,462.5A6,6,0,1,1,562.5,462.5"></path><path id="kity_path_368" fill="none" stroke="gray"></path></g><path id="node_outline29" fill="none" stroke="none" d="M567.5,453.5h370a5,5,0,0,1,5,5v8a5,5,0,0,1,-5,5h-370a5,5,0,0,1,-5,-5v-8a5,5,0,0,1,5,-5z"></path><g id="node_text29" fill="black"><text id="kity_text_187" text-rendering="inherit" font-size="12" dy=".8em" y="454.7000000476837" x="567.5">在由 render输出的任何 React 元素中读取、添加、编辑、删除 props</text></g></g><g id="minder_node33"><g id="node_expander29" display="none" style="cursor: pointer;"><path id="kity_path_370" fill="white" stroke="gray" d="M562.5,488.5A6,6,0,1,1,550.5,488.5A6,6,0,1,1,562.5,488.5"></path><path id="kity_path_371" fill="none" stroke="gray"></path></g><path id="node_outline30" fill="none" stroke="none" d="M567.5,479.5h230a5,5,0,0,1,5,5v8a5,5,0,0,1,-5,5h-230a5,5,0,0,1,-5,-5v-8a5,5,0,0,1,5,-5z"></path><g id="node_text30" fill="black"><text id="kity_text_189" text-rendering="inherit" font-size="12" dy=".8em" y="480.7000000476837" x="567.5">读取和修改由 render 输出的 React 元素树</text></g></g><g id="minder_node34"><g id="node_expander30" display="none" style="cursor: pointer;"><path id="kity_path_373" fill="white" stroke="gray" d="M562.5,514.5A6,6,0,1,1,550.5,514.5A6,6,0,1,1,562.5,514.5"></path><path id="kity_path_374" fill="none" stroke="gray"></path></g><path id="node_outline31" fill="none" stroke="none" d="M567.5,505.5h110a5,5,0,0,1,5,5v8a5,5,0,0,1,-5,5h-110a5,5,0,0,1,-5,-5v-8a5,5,0,0,1,5,-5z"></path><g id="node_text31" fill="black"><text id="kity_text_191" text-rendering="inherit" font-size="12" dy=".8em" y="506.7000000476837" x="567.5">有条件地渲染元素树</text></g></g><g id="minder_node35"><g id="node_expander31" display="none" style="cursor: pointer;"><path id="kity_path_376" fill="white" stroke="gray" d="M562.5,540.5A6,6,0,1,1,550.5,540.5A6,6,0,1,1,562.5,540.5"></path><path id="kity_path_377" fill="none" stroke="gray"></path></g><path id="node_outline32" fill="none" stroke="none" d="M567.5,531.5h110a5,5,0,0,1,5,5v8a5,5,0,0,1,-5,5h-110a5,5,0,0,1,-5,-5v-8a5,5,0,0,1,5,-5z"></path><g id="node_text32" fill="black"><text id="kity_text_193" text-rendering="inherit" font-size="12" dy=".8em" y="532.7000000476837" x="567.5">把样式包裹进元素树</text></g></g><g id="minder_node36"><g id="node_expander33" display="none" style="cursor: pointer;"><path id="kity_path_382" fill="white" stroke="gray" d="M486.5,566.5A6,6,0,1,1,474.5,566.5A6,6,0,1,1,486.5,566.5"></path><path id="kity_path_383" fill="none" stroke="gray"></path></g><path id="node_outline34" fill="none" stroke="none" d="M491.5,557.5h57a5,5,0,0,1,5,5v8a5,5,0,0,1,-5,5h-57a5,5,0,0,1,-5,-5v-8a5,5,0,0,1,5,-5z"></path><g id="node_text34" fill="black"><text id="kity_text_197" text-rendering="inherit" font-size="12" dy=".8em" y="558.7000000476837" x="491.5">操作 state</text></g></g><g id="minder_node37"><g id="node_expander36" style="cursor: pointer;"><path id="kity_path_391" fill="white" stroke="gray" d="M434.5,591.5A6,6,0,1,1,422.5,591.5A6,6,0,1,1,434.5,591.5"></path><path id="kity_path_392" fill="none" stroke="gray" d="M424,591.5L433,591.5"></path></g><path id="node_outline37" fill="none" stroke="none" d="M439.5,582.5h26a5,5,0,0,1,5,5v8a5,5,0,0,1,-5,5h-26a5,5,0,0,1,-5,-5v-8a5,5,0,0,1,5,-5z"></path><g id="node_text37" fill="black"><text id="kity_text_203" text-rendering="inherit" font-size="12" dy=".8em" y="583.7000000476837" x="439.5">注意</text></g></g><g id="minder_node38"><g id="node_expander35" display="none" style="cursor: pointer;"><path id="kity_path_388" fill="white" stroke="gray" d="M486.5,591.5A6,6,0,1,1,474.5,591.5A6,6,0,1,1,486.5,591.5"></path><path id="kity_path_389" fill="none" stroke="gray"></path></g><path id="node_outline36" fill="none" stroke="none" d="M491.5,582.5h400a5,5,0,0,1,5,5v8a5,5,0,0,1,-5,5h-400a5,5,0,0,1,-5,-5v-8a5,5,0,0,1,5,-5z"></path><g id="node_text36" fill="black"><text id="kity_text_201" text-rendering="inherit" font-size="12" dy=".8em" y="583.7000000476837" x="491.5">React 在内部处理了组件实例，你处理实例的唯一方法是通过 this 或者 refs</text></g></g><g id="minder_node39"><g id="node_expander40" style="cursor: pointer;"><path id="kity_path_403" fill="white" stroke="gray" d="M171.5,638.5A6,6,0,1,1,159.5,638.5A6,6,0,1,1,171.5,638.5"></path><path id="kity_path_404" fill="none" stroke="gray" d="M161,638.5L170,638.5"></path></g><path id="node_outline41" fill="rgb(238, 243, 246)" stroke="rgb(115, 161, 191)" d="M175.5,625.5h63a3,3,0,0,1,3,3v20a3,3,0,0,1,-3,3h-63a3,3,0,0,1,-3,-3v-20a3,3,0,0,1,3,-3z" stroke-width="1"></path><g id="node_text41" fill="black"><text id="kity_text_211" text-rendering="inherit" font-size="14" dy=".8em" y="629.4000000953674" x="192.5">案例</text></g></g><g id="minder_node40"><g id="node_expander38" display="none" style="cursor: pointer;"><path id="kity_path_397" fill="white" stroke="gray" d="M257.5,625.5A6,6,0,1,1,245.5,625.5A6,6,0,1,1,257.5,625.5"></path><path id="kity_path_398" fill="none" stroke="gray"></path></g><path id="node_outline39" fill="none" stroke="none" d="M262.5,616.5h126a5,5,0,0,1,5,5v8a5,5,0,0,1,-5,5h-126a5,5,0,0,1,-5,-5v-8a5,5,0,0,1,5,-5z"></path><g id="node_text39" fill="black"><text id="kity_text_207" text-rendering="inherit" font-size="12" dy=".8em" y="617.7000000476837" x="262.5">React-Redux&#xa0; connect</text></g></g><g id="minder_node41"><g id="node_expander39" display="none" style="cursor: pointer;"><path id="kity_path_400" fill="white" stroke="gray" d="M257.5,651.5A6,6,0,1,1,245.5,651.5A6,6,0,1,1,257.5,651.5"></path><path id="kity_path_401" fill="none" stroke="gray"></path></g><path id="node_outline40" fill="none" stroke="none" d="M262.5,642.5h48a5,5,0,0,1,5,5v8a5,5,0,0,1,-5,5h-48a5,5,0,0,1,-5,-5v-8a5,5,0,0,1,5,-5z"></path><g id="node_text40" fill="black"><text id="kity_text_209" text-rendering="inherit" font-size="12" dy=".8em" y="643.7000000476837" x="262.5">Radium&#xa0;</text></g></g><g id="minder_node42"><g id="node_expander47" style="cursor: pointer;"><path id="kity_path_424" fill="white" stroke="gray" d="M171.5,750.5A6,6,0,1,1,159.5,750.5A6,6,0,1,1,171.5,750.5"></path><path id="kity_path_425" fill="none" stroke="gray" d="M161,750.5L170,750.5"></path></g><path id="node_outline48" fill="rgb(238, 243, 246)" stroke="rgb(115, 161, 191)" d="M175.5,737.5h78a3,3,0,0,1,3,3v20a3,3,0,0,1,-3,3h-78a3,3,0,0,1,-3,-3v-20a3,3,0,0,1,3,-3z" stroke-width="1"></path><g id="node_text48" fill="black"><text id="kity_text_225" text-rendering="inherit" font-size="14" dy=".8em" y="741.4000000953674" x="192.5">父组件</text></g></g><g id="minder_node43"><g id="node_expander41" display="none" style="cursor: pointer;"><path id="kity_path_406" fill="white" stroke="gray" d="M272.5,685.5A6,6,0,1,1,260.5,685.5A6,6,0,1,1,272.5,685.5"></path><path id="kity_path_407" fill="none" stroke="gray"></path></g><path id="node_outline42" fill="none" stroke="none" d="M277.5,676.5h50a5,5,0,0,1,5,5v8a5,5,0,0,1,-5,5h-50a5,5,0,0,1,-5,-5v-8a5,5,0,0,1,5,-5z"></path><g id="node_text42" fill="black"><text id="kity_text_213" text-rendering="inherit" font-size="12" dy=".8em" y="677.7000000476837" x="277.5">渲染劫持</text></g></g><g id="minder_node44"><g id="node_expander42" display="none" style="cursor: pointer;"><path id="kity_path_409" fill="white" stroke="gray" d="M272.5,711.5A6,6,0,1,1,260.5,711.5A6,6,0,1,1,272.5,711.5"></path><path id="kity_path_410" fill="none" stroke="gray"></path></g><path id="node_outline43" fill="none" stroke="none" d="M277.5,702.5h89a5,5,0,0,1,5,5v8a5,5,0,0,1,-5,5h-89a5,5,0,0,1,-5,-5v-8a5,5,0,0,1,5,-5z"></path><g id="node_text43" fill="black"><text id="kity_text_215" text-rendering="inherit" font-size="12" dy=".8em" y="703.7000000476837" x="277.5">操作内部 props&#xa0;</text></g></g><g id="minder_node45"><g id="node_expander43" display="none" style="cursor: pointer;"><path id="kity_path_412" fill="white" stroke="gray" d="M272.5,737.5A6,6,0,1,1,260.5,737.5A6,6,0,1,1,272.5,737.5"></path><path id="kity_path_413" fill="none" stroke="gray"></path></g><path id="node_outline44" fill="none" stroke="none" d="M277.5,728.5h457a5,5,0,0,1,5,5v8a5,5,0,0,1,-5,5h-457a5,5,0,0,1,-5,-5v-8a5,5,0,0,1,5,-5z"></path><g id="node_text44" fill="black"><text id="kity_text_217" text-rendering="inherit" font-size="12" dy=".8em" y="729.7000000476837" x="277.5">提取 state 只有在显式地为它创建钩子函数后，你才能从父组件外面访问到它的 props</text></g></g><g id="minder_node46"><g id="node_expander44" display="none" style="cursor: pointer;"><path id="kity_path_415" fill="white" stroke="gray" d="M272.5,763.5A6,6,0,1,1,260.5,763.5A6,6,0,1,1,272.5,763.5"></path><path id="kity_path_416" fill="none" stroke="gray"></path></g><path id="node_outline45" fill="none" stroke="none" d="M277.5,754.5h125a5,5,0,0,1,5,5v8a5,5,0,0,1,-5,5h-125a5,5,0,0,1,-5,-5v-8a5,5,0,0,1,5,-5z"></path><g id="node_text45" fill="black"><text id="kity_text_219" text-rendering="inherit" font-size="12" dy=".8em" y="755.7000000476837" x="277.5">用新的 React 组件包裹</text></g></g><g id="minder_node47"><g id="node_expander45" display="none" style="cursor: pointer;"><path id="kity_path_418" fill="white" stroke="gray" d="M272.5,789.5A6,6,0,1,1,260.5,789.5A6,6,0,1,1,272.5,789.5"></path><path id="kity_path_419" fill="none" stroke="gray"></path></g><path id="node_outline46" fill="none" stroke="none" d="M277.5,780.5h662a5,5,0,0,1,5,5v8a5,5,0,0,1,-5,5h-662a5,5,0,0,1,-5,-5v-8a5,5,0,0,1,5,-5z"></path><g id="node_text46" fill="black"><text id="kity_text_221" text-rendering="inherit" font-size="12" dy=".8em" y="781.7000000476837" x="277.5">操作子组件会有一些陷阱当子组件没有单一的根节点时，你得添加一个额外的元素包裹所有的子组件，这让你的代码有些繁琐</text></g></g><g id="minder_node48"><g id="node_expander46" display="none" style="cursor: pointer;"><path id="kity_path_421" fill="white" stroke="gray" d="M272.5,815.5A6,6,0,1,1,260.5,815.5A6,6,0,1,1,272.5,815.5"></path><path id="kity_path_422" fill="none" stroke="gray"></path></g><path id="node_outline47" fill="none" stroke="none" d="M277.5,806.5h169a5,5,0,0,1,5,5v8a5,5,0,0,1,-5,5h-169a5,5,0,0,1,-5,-5v-8a5,5,0,0,1,5,-5z"></path><g id="node_text47" fill="black"><text id="kity_text_223" text-rendering="inherit" font-size="12" dy=".8em" y="807.7000000476837" x="277.5">父组件可以自由应用到组件树中</text></g></g><g id="minder_node49"><g id="node_expander51" style="cursor: pointer;"><path id="kity_path_436" fill="white" stroke="gray" d="M171.5,875.5A6,6,0,1,1,159.5,875.5A6,6,0,1,1,171.5,875.5"></path><path id="kity_path_437" fill="none" stroke="gray" d="M161,875.5L170,875.5"></path></g><path id="node_outline52" fill="rgb(238, 243, 246)" stroke="rgb(115, 161, 191)" d="M175.5,862.5h64a3,3,0,0,1,3,3v20a3,3,0,0,1,-3,3h-64a3,3,0,0,1,-3,-3v-20a3,3,0,0,1,3,-3z" stroke-width="1"></path><g id="node_text52" fill="black"><text id="kity_text_233" text-rendering="inherit" font-size="14" dy=".8em" y="866.4000000953674" x="192.5">评论</text></g></g><g id="minder_node50"><g id="node_expander48" display="none" style="cursor: pointer;"><path id="kity_path_427" fill="white" stroke="gray" d="M258.5,849.5A6,6,0,1,1,246.5,849.5A6,6,0,1,1,258.5,849.5"></path><path id="kity_path_428" fill="none" stroke="gray"></path></g><path id="node_outline49" fill="none" stroke="none" d="M263.5,840.5h639a5,5,0,0,1,5,5v8a5,5,0,0,1,-5,5h-639a5,5,0,0,1,-5,-5v-8a5,5,0,0,1,5,-5z"></path><g id="node_text49" fill="black"><text id="kity_text_227" text-rendering="inherit" font-size="12" dy=".8em" y="841.7000000476837" x="263.5">HOC是React的进阶，用好了可以抽象出很多公用的HOC，把子组件拆分成干干净净没有依赖的纯视图或者是简化版组件</text></g></g><g id="minder_node51"><g id="node_expander49" display="none" style="cursor: pointer;"><path id="kity_path_430" fill="white" stroke="gray" d="M258.5,875.5A6,6,0,1,1,246.5,875.5A6,6,0,1,1,258.5,875.5"></path><path id="kity_path_431" fill="none" stroke="gray"></path></g><path id="node_outline50" fill="none" stroke="none" d="M263.5,866.5h772a5,5,0,0,1,5,5v8a5,5,0,0,1,-5,5h-772a5,5,0,0,1,-5,-5v-8a5,5,0,0,1,5,-5z"></path><g id="node_text50" fill="black"><text id="kity_text_229" text-rendering="inherit" font-size="12" dy=".8em" y="867.7000000476837" x="263.5">文章里说的那个拓展受控组件的HOC我是深有体会，曾经被各种表单搞得要死要活，后来抽象出一个高阶组件代码少了三分之二不止（表单文件）</text></g></g><g id="minder_node52"><g id="node_expander50" display="none" style="cursor: pointer;"><path id="kity_path_433" fill="white" stroke="gray" d="M258.5,901.5A6,6,0,1,1,246.5,901.5A6,6,0,1,1,258.5,901.5"></path><path id="kity_path_434" fill="none" stroke="gray"></path></g><path id="node_outline51" fill="none" stroke="none" d="M263.5,892.5h520a5,5,0,0,1,5,5v8a5,5,0,0,1,-5,5h-520a5,5,0,0,1,-5,-5v-8a5,5,0,0,1,5,-5z"></path><g id="node_text51" fill="black"><text id="kity_text_231" text-rendering="inherit" font-size="12" dy=".8em" y="893.7000000476837" x="263.5">不过关于HOC这个问题，一定是得撞了南墙之后再去思考才能更好的理解。中小项目里基本用不到</text></g></g></g></g></svg>